<svg xmlns="http://www.w3.org/2000/svg" xmlns:xlink="http://www.w3.org/1999/xlink" width="500" zoomAndPan="magnify" viewBox="0 0 375 374.999991" height="500" preserveAspectRatio="xMidYMid meet" version="1.0"><defs><clipPath id="0f9e9a5ba0"><path d="M 242 84.527344 L 251 84.527344 L 251 147 L 242 147 Z M 242 84.527344 " clip-rule="nonzero"/></clipPath></defs><path fill="#a8c850" d="M 178.1875 270.359375 C 201.8125 259.535156 220.511719 240.832031 261.851562 233.941406 C 303.191406 227.050781 356.339844 200.476562 361.265625 186.699219 C 366.1875 172.917969 375.042969 169.964844 352.40625 160.121094 C 329.769531 150.28125 257.914062 122.71875 235.277344 121.734375 C 212.640625 120.75 208.703125 125.671875 185.078125 135.515625 C 185.078125 135.515625 121.101562 160.121094 105.351562 164.058594 C 89.605469 167.996094 32.515625 193.589844 19.71875 200.476562 C 6.921875 207.367188 0.0351562 214.257812 12.828125 227.050781 C 25.625 239.847656 104.367188 257.566406 121.101562 267.410156 C 137.832031 277.25 154.566406 281.1875 178.1875 270.359375 Z M 178.1875 270.359375 " fill-opacity="1" fill-rule="nonzero"/><path fill="#4a4a4a" d="M 15.78125 215.242188 C 17.75 224.097656 105.351562 249.691406 121.097656 255.597656 C 136.847656 261.503906 144.722656 271.347656 168.34375 259.535156 C 191.96875 247.722656 257.914062 219.175781 290.394531 211.304688 C 322.875 203.429688 363.230469 180.792969 356.339844 168.980469 C 349.449219 157.167969 241.179688 123.703125 227.402344 124.6875 C 213.621094 125.671875 164.40625 148.3125 140.785156 156.183594 C 117.160156 164.058594 51.214844 186.695312 35.464844 197.523438 C 35.464844 197.523438 13.8125 206.382812 15.78125 215.242188 Z M 15.78125 215.242188 " fill-opacity="1" fill-rule="nonzero"/><path fill="#302c3b" d="M 31.132812 207.445312 L 31.132812 213.972656 L 237.253906 136.199219 L 237.253906 131.375 Z M 31.132812 207.445312 " fill-opacity="1" fill-rule="nonzero"/><path fill="#302c3b" d="M 137.316406 135.972656 L 235.417969 97.800781 L 337.921875 138.367188 L 337.921875 133.542969 L 235.417969 92.972656 L 136.765625 131.367188 L 136.765625 131.40625 L 32.15625 171.421875 L 32.15625 175.882812 L 136.765625 136.199219 L 137.316406 135.992188 Z M 137.316406 135.972656 " fill-opacity="1" fill-rule="nonzero"/><path fill="#d10e36" d="M 125.980469 122.933594 L 123.25 129.425781 L 121.546875 184.648438 L 130.414062 181.964844 L 129.734375 126.628906 Z M 125.980469 122.933594 " fill-opacity="1" fill-rule="nonzero"/><path fill="#d10e36" d="M 110.289062 128.886719 L 107.558594 135.378906 L 105.855469 190.601562 L 114.722656 187.917969 L 114.042969 132.578125 Z M 110.289062 128.886719 " fill-opacity="1" fill-rule="nonzero"/><path fill="#d10e36" d="M 94.601562 134.839844 L 90.847656 141.378906 L 90.164062 197.234375 L 99.035156 193.1875 L 97.328125 139.261719 Z M 94.601562 134.839844 " fill-opacity="1" fill-rule="nonzero"/><path fill="#d10e36" d="M 78.910156 140.792969 L 74.925781 147.417969 L 71.746094 204.222656 L 80.644531 200.167969 L 81.394531 145.308594 Z M 78.910156 140.792969 " fill-opacity="1" fill-rule="nonzero"/><path fill="#d10e36" d="M 60.148438 147.910156 L 56.398438 154.449219 L 55.714844 210.304688 L 64.582031 206.257812 L 62.878906 152.332031 Z M 60.148438 147.910156 " fill-opacity="1" fill-rule="nonzero"/><path fill="#d10e36" d="M 44.117188 153.992188 L 41.390625 160.484375 L 39.683594 215.707031 L 48.554688 213.023438 L 47.867188 157.683594 Z M 44.117188 153.992188 " fill-opacity="1" fill-rule="nonzero"/><path fill="#d10e36" d="M 224.894531 85.414062 L 222.167969 91.90625 L 220.460938 147.128906 L 229.332031 144.445312 L 228.648438 89.105469 Z M 224.894531 85.414062 " fill-opacity="1" fill-rule="nonzero"/><path fill="#d10e36" d="M 209.207031 91.367188 L 206.476562 97.859375 L 204.773438 153.082031 L 213.640625 150.398438 L 212.957031 95.058594 Z M 209.207031 91.367188 " fill-opacity="1" fill-rule="nonzero"/><path fill="#d10e36" d="M 193.515625 97.320312 L 189.765625 103.859375 L 189.082031 159.714844 L 197.949219 155.671875 L 196.246094 101.742188 Z M 193.515625 97.320312 " fill-opacity="1" fill-rule="nonzero"/><path fill="#d10e36" d="M 177.824219 103.273438 L 173.84375 109.898438 L 170.664062 166.703125 L 179.5625 162.644531 L 180.308594 107.785156 Z M 177.824219 103.273438 " fill-opacity="1" fill-rule="nonzero"/><path fill="#d10e36" d="M 159.066406 110.390625 L 155.3125 116.929688 L 154.632812 172.785156 L 163.5 168.738281 L 161.796875 114.8125 Z M 159.066406 110.390625 " fill-opacity="1" fill-rule="nonzero"/><path fill="#d10e36" d="M 143.035156 116.472656 L 140.308594 122.964844 L 138.601562 178.1875 L 147.46875 175.503906 L 146.785156 120.164062 Z M 143.035156 116.472656 " fill-opacity="1" fill-rule="nonzero"/><path fill="#d10e36" d="M 43.488281 163.183594 L 39.734375 166.875 L 39.050781 222.214844 L 47.921875 224.898438 L 46.214844 169.675781 Z M 43.488281 163.183594 " fill-opacity="1" fill-rule="nonzero"/><path fill="#d10e36" d="M 59.175781 169.136719 L 55.425781 172.828125 L 54.742188 228.167969 L 63.609375 230.851562 L 61.90625 175.628906 Z M 59.175781 169.136719 " fill-opacity="1" fill-rule="nonzero"/><path fill="#d10e36" d="M 74.867188 175.085938 L 72.140625 179.511719 L 70.433594 233.4375 L 79.300781 237.484375 L 78.621094 181.628906 Z M 74.867188 175.085938 " fill-opacity="1" fill-rule="nonzero"/><path fill="#d10e36" d="M 94.539062 187.667969 L 90.558594 181.039062 L 88.074219 185.554688 L 88.820312 240.414062 L 97.71875 244.472656 Z M 94.539062 187.667969 " fill-opacity="1" fill-rule="nonzero"/><path fill="#d10e36" d="M 109.316406 188.15625 L 106.589844 192.582031 L 104.882812 246.507812 L 113.753906 250.554688 L 113.070312 194.699219 Z M 109.316406 188.15625 " fill-opacity="1" fill-rule="nonzero"/><path fill="#d10e36" d="M 125.347656 194.238281 L 121.597656 197.933594 L 120.914062 253.273438 L 129.78125 255.953125 L 128.078125 200.730469 Z M 125.347656 194.238281 " fill-opacity="1" fill-rule="nonzero"/><path fill="#302c3b" d="M 137.316406 215.589844 L 241.003906 176.253906 L 241.003906 171.421875 L 136.578125 212.746094 L 32.15625 171.421875 L 32.15625 176.253906 L 135.84375 215.589844 L 136.578125 215.859375 Z M 137.316406 215.589844 " fill-opacity="1" fill-rule="nonzero"/><path fill="#302c3b" d="M 237.253906 131.375 L 237.253906 136.199219 L 340.945312 176.449219 L 340.945312 171.625 Z M 237.253906 131.375 " fill-opacity="1" fill-rule="nonzero"/><g clip-path="url(#0f9e9a5ba0)"><path fill="#d10e36" d="M 246.464844 84.808594 L 242.808594 88.480469 L 242.144531 143.816406 L 250.789062 146.554688 L 249.125 91.320312 Z M 246.464844 84.808594 " fill-opacity="1" fill-rule="nonzero"/></g><path fill="#d10e36" d="M 261.757812 90.859375 L 258.101562 94.53125 L 257.4375 149.867188 L 266.078125 152.605469 L 264.417969 97.371094 Z M 261.757812 90.859375 " fill-opacity="1" fill-rule="nonzero"/><path fill="#d10e36" d="M 277.050781 96.914062 L 274.394531 101.320312 L 272.730469 155.234375 L 281.375 159.339844 L 280.707031 103.476562 Z M 277.050781 96.914062 " fill-opacity="1" fill-rule="nonzero"/><path fill="#d10e36" d="M 296.226562 109.617188 L 292.34375 102.964844 L 289.925781 107.464844 L 290.652344 162.328125 L 299.328125 166.441406 Z M 296.226562 109.617188 " fill-opacity="1" fill-rule="nonzero"/><path fill="#d10e36" d="M 310.628906 110.203125 L 307.96875 114.605469 L 306.308594 168.523438 L 314.953125 172.625 L 314.289062 116.765625 Z M 310.628906 110.203125 " fill-opacity="1" fill-rule="nonzero"/><path fill="#d10e36" d="M 326.257812 116.386719 L 322.597656 120.054688 L 321.933594 175.386719 L 330.578125 178.125 L 328.914062 122.894531 Z M 326.257812 116.386719 " fill-opacity="1" fill-rule="nonzero"/><path fill="#302c3b" d="M 139.015625 253.046875 L 242.03125 213.972656 L 242.03125 209.144531 L 136.578125 247.480469 L 31.132812 209.144531 L 31.132812 213.972656 L 134.144531 253.046875 L 136.578125 253.96875 Z M 139.015625 253.046875 " fill-opacity="1" fill-rule="nonzero"/><path fill="#d10e36" d="M 229.671875 163.183594 L 226.941406 169.675781 L 225.238281 224.898438 L 234.105469 222.214844 L 233.425781 166.875 Z M 229.671875 163.183594 " fill-opacity="1" fill-rule="nonzero"/><path fill="#d10e36" d="M 213.980469 169.136719 L 211.253906 175.628906 L 209.546875 230.851562 L 218.417969 228.167969 L 217.734375 172.828125 Z M 213.980469 169.136719 " fill-opacity="1" fill-rule="nonzero"/><path fill="#d10e36" d="M 198.292969 175.085938 L 194.539062 181.628906 L 193.859375 237.484375 L 202.726562 233.4375 L 201.019531 179.511719 Z M 198.292969 175.085938 " fill-opacity="1" fill-rule="nonzero"/><path fill="#d10e36" d="M 182.601562 181.039062 L 178.621094 187.667969 L 175.4375 244.472656 L 184.335938 240.414062 L 185.085938 185.554688 Z M 182.601562 181.039062 " fill-opacity="1" fill-rule="nonzero"/><path fill="#d10e36" d="M 163.839844 188.15625 L 160.089844 194.699219 L 159.40625 250.554688 L 168.273438 246.507812 L 166.570312 192.582031 Z M 163.839844 188.15625 " fill-opacity="1" fill-rule="nonzero"/><path fill="#d10e36" d="M 147.808594 194.238281 L 145.082031 200.730469 L 143.375 255.953125 L 152.246094 253.273438 L 151.5625 197.933594 Z M 147.808594 194.238281 " fill-opacity="1" fill-rule="nonzero"/><path fill="#302c3b" d="M 233.058594 210.847656 L 233.058594 217.378906 L 340.945312 176.449219 L 340.945312 171.625 Z M 233.058594 210.847656 " fill-opacity="1" fill-rule="nonzero"/><path fill="#302c3b" d="M 337.921875 133.542969 L 234.421875 174.027344 L 234.765625 178.625 L 337.921875 138.367188 Z M 337.921875 133.542969 " fill-opacity="1" fill-rule="nonzero"/><path fill="#d10e36" d="M 328.589844 125.660156 L 325.859375 132.15625 L 324.152344 187.378906 L 333.023438 184.695312 L 332.339844 129.355469 Z M 328.589844 125.660156 " fill-opacity="1" fill-rule="nonzero"/><path fill="#d10e36" d="M 312.898438 131.613281 L 310.171875 138.109375 L 308.464844 193.328125 L 317.332031 190.648438 L 316.648438 135.308594 Z M 312.898438 131.613281 " fill-opacity="1" fill-rule="nonzero"/><path fill="#d10e36" d="M 297.207031 137.570312 L 293.457031 144.105469 L 292.773438 199.964844 L 301.640625 195.917969 L 299.9375 141.992188 Z M 297.207031 137.570312 " fill-opacity="1" fill-rule="nonzero"/><path fill="#d10e36" d="M 281.515625 143.519531 L 277.535156 150.148438 L 274.355469 206.953125 L 283.253906 202.894531 L 284 148.035156 Z M 281.515625 143.519531 " fill-opacity="1" fill-rule="nonzero"/><path fill="#d10e36" d="M 262.757812 150.640625 L 259.003906 157.175781 L 258.324219 213.035156 L 267.191406 208.988281 L 265.488281 155.058594 Z M 262.757812 150.640625 " fill-opacity="1" fill-rule="nonzero"/><path fill="#d10e36" d="M 246.726562 156.722656 L 244 163.214844 L 242.292969 218.433594 L 251.160156 215.753906 L 250.480469 160.414062 Z M 246.726562 156.722656 " fill-opacity="1" fill-rule="nonzero"/></svg>