<svg xmlns="http://www.w3.org/2000/svg" xmlns:xlink="http://www.w3.org/1999/xlink" width="500" zoomAndPan="magnify" viewBox="0 0 375 374.999991" height="500" preserveAspectRatio="xMidYMid meet" version="1.0"><defs><clipPath id="8c81baeb10"><path d="M 101.714844 213.171875 L 184.511719 213.171875 L 184.511719 284.292969 L 101.714844 284.292969 Z M 101.714844 213.171875 " clip-rule="nonzero"/></clipPath><clipPath id="f659e773e1"><path d="M 226.460938 116.664062 L 286.515625 116.664062 L 286.515625 215.089844 L 226.460938 215.089844 Z M 226.460938 116.664062 " clip-rule="nonzero"/></clipPath><clipPath id="5f423a1d39"><path d="M 196.574219 213.171875 L 279.375 213.171875 L 279.375 284.292969 L 196.574219 284.292969 Z M 196.574219 213.171875 " clip-rule="nonzero"/></clipPath><clipPath id="16a52d3dac"><path d="M 167.121094 151.097656 L 216 151.097656 L 216 224 L 167.121094 224 Z M 167.121094 151.097656 " clip-rule="nonzero"/></clipPath></defs><g clip-path="url(#8c81baeb10)"><path fill="#1d1d1b" d="M 143.855469 213.210938 L 101.890625 226.847656 C 115.566406 259.773438 147.078125 283.492188 184.300781 285.898438 L 184.300781 241.835938 C 166.515625 239.710938 151.488281 228.625 143.855469 213.210938 " fill-opacity="1" fill-rule="nonzero"/></g><path fill="#d10e36" d="M 242.421875 109.457031 C 210.859375 89.09375 170.234375 89.09375 138.667969 109.457031 L 164.527344 145.042969 C 180.617188 135.75 200.449219 135.734375 216.566406 145.042969 L 242.421875 109.457031 " fill-opacity="1" fill-rule="nonzero"/><path fill="#169c00" d="M 154.546875 152.546875 L 128.640625 116.890625 C 99.480469 141.5625 88.453125 179.984375 97.863281 215.027344 L 139.710938 201.433594 C 135.761719 183.570312 141.375 165.15625 154.546875 152.546875 " fill-opacity="1" fill-rule="nonzero"/><g clip-path="url(#f659e773e1)"><path fill="#169c00" d="M 252.453125 116.890625 L 226.546875 152.539062 C 239.683594 165.121094 245.332031 183.511719 241.378906 201.433594 L 283.226562 215.027344 C 292.839844 179.210938 281.035156 141.078125 252.453125 116.890625 " fill-opacity="1" fill-rule="nonzero"/></g><g clip-path="url(#5f423a1d39)"><path fill="#1d1d1b" d="M 196.789062 241.835938 L 196.789062 285.898438 C 234.011719 283.492188 265.527344 259.773438 279.203125 226.847656 L 237.234375 213.210938 C 229.609375 228.625 214.578125 239.710938 196.789062 241.835938 " fill-opacity="1" fill-rule="nonzero"/></g><g clip-path="url(#16a52d3dac)"><path fill="#d10e36" d="M 215.429688 197.550781 C 215.414062 185.859375 215.316406 172.59375 215.183594 171.382812 C 215.183594 171.382812 215.183594 171.367188 215.183594 171.367188 C 214.9375 169.320312 211.648438 161.460938 207.996094 158.855469 C 208.0625 158.480469 208.046875 157.875 207.832031 156.875 C 207.503906 155.320312 206.457031 151.980469 205.246094 151.554688 C 203.96875 151.097656 176.492188 151.734375 175.230469 152.257812 C 174.117188 152.71875 173.429688 155.730469 173.21875 157.253906 C 173.070312 158.332031 173.070312 159.121094 173.199219 159.609375 C 171.269531 161.117188 167.796875 169.664062 167.535156 170.828125 C 167.140625 172.578125 167.503906 217.28125 167.519531 219.179688 L 167.535156 219.3125 C 168.238281 221.324219 179.421875 223.257812 181.191406 223.257812 C 181.207031 223.257812 181.207031 223.257812 181.207031 223.257812 C 182.5 223.699219 185.5 223.863281 189.199219 223.863281 C 199.300781 223.863281 214.660156 222.667969 214.792969 222.621094 C 215.234375 222.472656 215.464844 222.390625 215.429688 197.550781 Z M 200.25 172.496094 C 205.917969 172.285156 211.417969 172.039062 214.464844 171.824219 C 214.53125 172.988281 214.59375 176.097656 214.628906 180.226562 C 213.335938 180.960938 211.515625 180.570312 210.648438 179.375 C 210.4375 179.097656 210.273438 178.769531 210.109375 178.425781 C 209.863281 177.933594 209.617188 177.441406 209.207031 177.015625 C 208.144531 175.9375 206.507812 175.871094 205.195312 175.953125 L 204.886719 175.96875 C 203.707031 176.035156 202.476562 176.117188 201.527344 175.558594 C 200.496094 174.96875 199.957031 173.628906 200.25 172.496094 Z M 212.121094 165.523438 C 213.269531 167.730469 214.105469 169.910156 214.367188 171.054688 C 211.386719 171.269531 206.082031 171.515625 200.578125 171.710938 C 201.5625 169.878906 203.347656 169.207031 204.722656 168.976562 C 205.132812 168.910156 205.574219 168.878906 205.984375 168.847656 C 207.179688 168.746094 208.40625 168.664062 209.371094 167.847656 C 209.730469 167.535156 210.011719 167.160156 210.273438 166.800781 C 210.421875 166.601562 210.566406 166.390625 210.730469 166.191406 C 211.074219 165.800781 211.617188 165.421875 212.121094 165.523438 Z M 211.714844 164.769531 C 211.171875 164.851562 210.617188 165.179688 210.140625 165.71875 C 209.960938 165.929688 209.796875 166.144531 209.648438 166.375 C 209.40625 166.71875 209.175781 167.042969 208.878906 167.289062 C 208.109375 167.945312 207.046875 168.027344 205.933594 168.109375 C 205.492188 168.140625 205.050781 168.175781 204.605469 168.257812 C 202.28125 168.632812 200.5625 169.878906 199.726562 171.761719 C 191.554688 172.070312 183.171875 172.316406 181.421875 172.367188 C 180.996094 170.171875 178.636719 163.03125 175.738281 160.378906 C 177.277344 160.445312 179.503906 160.476562 182.09375 160.476562 C 191.65625 160.476562 206 160.035156 207.605469 159.496094 C 209.078125 160.578125 210.535156 162.640625 211.714844 164.769531 Z M 174.496094 160.378906 C 177.230469 161.886719 180.09375 169.597656 180.636719 172.351562 C 178.246094 172.300781 175.789062 172.023438 173.675781 171.679688 C 173.726562 171.613281 173.757812 171.53125 173.742188 171.449219 C 173.542969 167.75 173.789062 164.03125 174.496094 160.378906 Z M 174.363281 155.417969 C 174.820312 153.667969 175.3125 153.042969 175.527344 152.945312 C 177.128906 152.472656 203.789062 151.847656 205 152.257812 C 205.375 152.390625 206.113281 153.601562 206.71875 155.582031 C 207.195312 157.121094 207.308594 158.167969 207.257812 158.628906 C 207.210938 158.660156 207.179688 158.695312 207.144531 158.742188 C 207.113281 158.792969 207.097656 158.824219 207.097656 158.875 C 204.441406 159.464844 179.03125 159.972656 174.527344 159.5625 C 174.332031 159.480469 174.132812 159.414062 173.9375 159.382812 C 173.789062 158.890625 173.871094 157.269531 174.363281 155.417969 Z M 173.660156 160.167969 C 173.691406 160.167969 173.726562 160.183594 173.757812 160.183594 C 173.039062 163.902344 172.773438 167.699219 172.988281 171.480469 C 172.988281 171.515625 172.988281 171.53125 173.003906 171.5625 C 170.828125 171.1875 169.125 170.792969 168.402344 170.613281 C 169.140625 168.125 172.59375 160.789062 173.660156 160.167969 Z M 168.304688 219.097656 C 168.207031 206.703125 168.011719 175.429688 168.253906 171.382812 C 169.828125 171.761719 175.476562 173.054688 180.714844 173.121094 C 180.960938 176.835938 181.160156 201.183594 181.125 214.332031 C 180.78125 214.53125 180.421875 214.675781 180.027344 214.777344 C 179.472656 214.921875 178.898438 214.941406 178.277344 214.972656 C 177.636719 215.003906 176.984375 215.023438 176.328125 215.203125 C 175.066406 215.546875 173.953125 216.429688 173.363281 217.59375 C 172.839844 218.609375 172.726562 219.835938 173.019531 220.949219 C 170.648438 220.359375 168.601562 219.671875 168.304688 219.097656 Z M 181.011719 222.488281 C 179.996094 222.4375 176.820312 221.882812 173.886719 221.179688 C 173.886719 221.160156 173.886719 221.160156 173.871094 221.144531 C 173.480469 220.128906 173.542969 218.933594 174.050781 217.953125 C 174.542969 216.96875 175.476562 216.234375 176.542969 215.9375 C 177.113281 215.792969 177.703125 215.757812 178.324219 215.742188 C 178.949219 215.710938 179.601562 215.691406 180.242188 215.527344 C 180.554688 215.445312 180.863281 215.332031 181.140625 215.203125 C 181.109375 218.96875 181.078125 221.6875 181.011719 222.488281 Z M 181.714844 222.585938 C 181.832031 221.734375 181.910156 219.703125 181.929688 214.726562 C 182.945312 214.039062 183.796875 213.054688 184.628906 212.089844 C 185.84375 210.683594 187.003906 209.339844 188.625 208.914062 C 190.199219 208.503906 192.082031 209.109375 193.421875 210.46875 C 194.535156 211.597656 195.339844 213.21875 195.8125 215.300781 L 195.914062 215.726562 C 196.175781 216.90625 196.46875 218.261719 197.46875 219.113281 C 198.382812 219.902344 199.628906 220.03125 200.726562 220.066406 L 201.167969 220.082031 C 202.085938 220.097656 202.96875 220.113281 203.738281 220.457031 C 204.542969 220.800781 205.261719 221.6875 205.015625 222.519531 C 205.015625 222.539062 205 222.570312 205 222.585938 C 196.453125 223.0625 184.859375 223.453125 181.714844 222.585938 Z M 214.414062 221.898438 C 213.449219 222.011719 210.058594 222.273438 205.785156 222.539062 C 206 221.359375 205.097656 220.210938 204.035156 219.753906 C 203.117188 219.359375 202.132812 219.34375 201.167969 219.3125 L 200.742188 219.296875 C 199.777344 219.261719 198.695312 219.148438 197.960938 218.527344 C 197.15625 217.839844 196.894531 216.675781 196.648438 215.5625 L 196.550781 215.136719 C 196.042969 212.910156 195.175781 211.15625 193.945312 209.929688 C 192.425781 208.390625 190.246094 207.703125 188.414062 208.175781 C 186.546875 208.667969 185.269531 210.160156 184.023438 211.597656 C 183.335938 212.402344 182.664062 213.1875 181.910156 213.792969 C 181.910156 210.238281 181.894531 205.328125 181.847656 198.53125 C 181.765625 187.789062 181.601562 175.675781 181.46875 173.121094 C 183.335938 173.070312 191.457031 172.824219 199.449219 172.53125 C 199.1875 173.9375 199.859375 175.492188 201.121094 176.214844 C 202.28125 176.871094 203.609375 176.804688 204.902344 176.722656 L 205.210938 176.707031 C 206.359375 176.640625 207.800781 176.6875 208.636719 177.539062 C 208.960938 177.867188 209.175781 178.292969 209.40625 178.753906 C 209.585938 179.113281 209.765625 179.472656 210.011719 179.800781 C 210.730469 180.78125 211.960938 181.324219 213.171875 181.324219 C 213.660156 181.324219 214.152344 181.226562 214.613281 181.042969 C 214.742188 195.027344 214.660156 219.378906 214.414062 221.898438 Z M 214.414062 221.898438 " fill-opacity="1" fill-rule="nonzero"/></g><path fill="#d10e36" d="M 201.445312 163.246094 C 201.429688 161.773438 199.777344 160.625 197.648438 160.625 C 195.535156 160.625 193.882812 161.773438 193.847656 163.230469 L 193.488281 165.539062 C 193.488281 166.847656 195.160156 167.863281 197.289062 167.863281 C 199.417969 167.863281 201.085938 166.832031 201.085938 165.585938 L 201.363281 163.835938 C 201.414062 163.65625 201.445312 163.457031 201.445312 163.261719 C 201.464844 163.261719 201.464844 163.261719 201.445312 163.246094 C 201.464844 163.246094 201.445312 163.246094 201.445312 163.246094 Z M 197.664062 161.378906 C 199.300781 161.378906 200.675781 162.230469 200.695312 163.246094 L 200.628906 163.65625 C 200.332031 164.507812 199.089844 165.160156 197.648438 165.160156 C 195.992188 165.160156 194.601562 164.292969 194.601562 163.277344 C 194.601562 162.261719 196.011719 161.378906 197.664062 161.378906 Z M 197.289062 167.109375 C 195.46875 167.109375 194.242188 166.292969 194.242188 165.605469 L 194.390625 164.652344 C 195.042969 165.421875 196.238281 165.914062 197.648438 165.914062 C 198.730469 165.914062 199.695312 165.605469 200.382812 165.113281 L 200.316406 165.539062 C 200.332031 166.292969 199.105469 167.109375 197.289062 167.109375 Z M 197.289062 167.109375 " fill-opacity="1" fill-rule="nonzero"/><path fill="#d10e36" d="M 197.960938 181.585938 C 189.671875 181.585938 182.945312 187.070312 182.945312 193.800781 C 182.945312 200.53125 189.691406 206.015625 197.960938 206.015625 C 206.226562 206.015625 212.972656 200.53125 212.972656 193.800781 C 212.972656 187.070312 206.246094 181.585938 197.960938 181.585938 Z M 197.960938 205.261719 C 190.097656 205.261719 183.695312 200.121094 183.695312 193.800781 C 183.695312 187.480469 190.097656 182.339844 197.960938 182.339844 C 205.820312 182.339844 212.222656 187.480469 212.222656 193.800781 C 212.222656 200.121094 205.820312 205.261719 197.960938 205.261719 Z M 197.960938 205.261719 " fill-opacity="1" fill-rule="nonzero"/><path fill="#d10e36" d="M 207.882812 188.625 C 207.488281 188.542969 206.082031 188.429688 204.378906 189.738281 C 204.296875 189.640625 204.214844 189.558594 204.117188 189.460938 C 205.738281 188.824219 205.949219 187.691406 205.917969 187.054688 C 205.882812 186.203125 205.375 185.300781 204.851562 185.1875 C 204.625 185.136719 204.394531 185.238281 204.28125 185.449219 C 204 185.957031 203.167969 187.21875 201.464844 187.789062 C 201.429688 187.808594 201.414062 187.808594 201.382812 187.824219 C 200.546875 187.5625 199.515625 187.398438 198.238281 187.382812 C 196.960938 187.363281 195.929688 187.527344 195.09375 187.773438 C 195.078125 187.773438 195.078125 187.757812 195.0625 187.757812 C 193.375 187.101562 192.605469 185.808594 192.359375 185.285156 C 192.261719 185.074219 192.03125 184.957031 191.785156 185.007812 C 191.261719 185.105469 190.707031 185.972656 190.640625 186.824219 C 190.589844 187.480469 190.753906 188.640625 192.441406 189.363281 C 192.292969 189.511719 192.164062 189.675781 192.046875 189.804688 C 192.03125 189.773438 192 189.753906 191.964844 189.738281 C 190 188.496094 188.542969 188.824219 188.132812 188.953125 C 187.691406 189.101562 187.382812 189.332031 187.265625 189.625 C 187.183594 189.835938 187.21875 190.101562 187.398438 190.476562 C 187.808594 191.328125 189.003906 192.71875 190.050781 193.261719 C 189.625 194.636719 189.476562 196.222656 189.855469 197.679688 C 190.328125 199.515625 191.574219 200.859375 193.457031 201.578125 C 194.324219 202.722656 196.207031 203.511719 198.449219 203.511719 C 200.59375 203.511719 202.414062 202.789062 203.3125 201.726562 C 205.210938 200.921875 206.441406 199.546875 206.867188 197.761719 C 207.226562 196.273438 206.996094 194.601562 206.457031 193.179688 C 207.441406 192.539062 208.472656 190.949219 208.78125 190.050781 C 208.914062 189.675781 208.914062 189.394531 208.800781 189.199219 C 208.667969 188.921875 208.339844 188.722656 207.882812 188.625 Z M 207.652344 189.363281 C 207.996094 189.410156 208.144531 189.527344 208.144531 189.492188 C 208.160156 189.609375 208.078125 189.835938 207.949219 190.117188 C 207.914062 190.101562 207.882812 190.082031 207.832031 190.082031 C 207.785156 190.082031 206.671875 189.984375 205.425781 191.097656 C 205.292969 190.902344 205.164062 190.722656 205.015625 190.574219 C 204.96875 190.507812 204.902344 190.425781 204.835938 190.34375 C 206.226562 189.28125 207.324219 189.3125 207.652344 189.363281 Z M 198.828125 188.183594 C 202.414062 188.363281 203.609375 189.984375 204.199219 190.769531 C 204.296875 190.902344 204.363281 191 204.441406 191.082031 C 204.640625 191.3125 204.820312 191.574219 205 191.851562 C 205.015625 191.902344 205.050781 191.949219 205.082031 191.984375 C 205.097656 192 205.113281 192.03125 205.132812 192.046875 C 205.03125 192.226562 204.851562 192.359375 204.640625 192.425781 C 204.394531 192.507812 204.132812 192.492188 203.953125 192.375 C 203.738281 192.261719 203.574219 192.046875 203.394531 191.835938 C 203.167969 191.558594 202.886719 191.230469 202.496094 191.050781 C 202.035156 190.851562 201.5625 190.902344 201.136719 190.949219 C 200.90625 190.984375 200.695312 191 200.480469 191 C 199.90625 190.96875 199.351562 190.574219 199.054688 190 C 198.777344 189.492188 198.710938 188.855469 198.828125 188.183594 Z M 204.804688 186.070312 C 204.984375 186.300781 205.195312 186.777344 205.164062 187.285156 C 205.097656 188.003906 204.542969 188.558594 203.542969 188.871094 C 203.527344 188.871094 203.511719 188.886719 203.492188 188.886719 C 203.199219 188.660156 202.839844 188.429688 202.414062 188.234375 C 203.691406 187.609375 204.441406 186.644531 204.804688 186.070312 Z M 191.394531 187.101562 C 191.375 186.578125 191.621094 186.121094 191.800781 185.90625 C 192.128906 186.515625 192.851562 187.496094 194.109375 188.183594 C 193.703125 188.378906 193.359375 188.609375 193.0625 188.839844 C 193.03125 188.804688 192.996094 188.789062 192.949219 188.773438 C 191.949219 188.398438 191.410156 187.824219 191.394531 187.101562 Z M 188.445312 189.65625 C 188.773438 189.574219 189.933594 189.378906 191.554688 190.394531 C 191.574219 190.394531 191.574219 190.410156 191.589844 190.410156 C 191.539062 190.476562 191.492188 190.527344 191.457031 190.574219 C 191.292969 190.753906 191.148438 190.96875 191 191.179688 C 189.574219 190.132812 188.414062 190.378906 188.363281 190.394531 C 188.316406 190.410156 188.28125 190.425781 188.25 190.445312 C 188.085938 190.179688 187.96875 189.984375 187.96875 189.886719 C 187.96875 189.886719 188.101562 189.753906 188.445312 189.65625 Z M 188.738281 191.132812 C 189.066406 191.132812 189.773438 191.214844 190.605469 191.851562 C 190.492188 192.066406 190.394531 192.292969 190.296875 192.539062 C 189.773438 192.261719 189.199219 191.6875 188.738281 191.132812 Z M 198.449219 202.757812 C 196.46875 202.757812 194.71875 202.035156 194.027344 201.054688 C 194.027344 201.054688 194.011719 201.039062 194.011719 201.039062 C 193.816406 200.757812 193.71875 200.464844 193.71875 200.152344 C 193.71875 198.746094 195.878906 197.550781 198.449219 197.550781 C 201.019531 197.550781 203.183594 198.746094 203.183594 200.152344 C 203.183594 201.5625 201.019531 202.757812 198.449219 202.757812 Z M 206.144531 197.582031 C 205.835938 198.859375 205.082031 199.875 203.902344 200.59375 C 203.9375 200.449219 203.953125 200.300781 203.953125 200.152344 C 203.953125 198.269531 201.546875 196.78125 198.464844 196.78125 C 195.386719 196.78125 192.980469 198.253906 192.980469 200.152344 C 192.980469 200.285156 192.996094 200.414062 193.015625 200.546875 C 191.769531 199.875 190.96875 198.859375 190.605469 197.5 C 190.246094 196.140625 190.410156 194.601562 190.851562 193.292969 C 190.886719 193.261719 190.902344 193.210938 190.917969 193.160156 C 190.933594 193.128906 190.933594 193.097656 190.933594 193.046875 C 191.230469 192.261719 191.605469 191.574219 192.046875 191.082031 C 192.128906 190.984375 192.226562 190.871094 192.328125 190.738281 C 192.996094 189.835938 194.242188 188.183594 198.089844 188.167969 C 197.976562 188.96875 198.074219 189.738281 198.402344 190.363281 C 198.828125 191.164062 199.628906 191.722656 200.449219 191.769531 C 200.726562 191.785156 200.988281 191.753906 201.234375 191.722656 C 201.609375 191.671875 201.921875 191.640625 202.199219 191.753906 C 202.429688 191.851562 202.625 192.082031 202.820312 192.328125 C 203.035156 192.570312 203.265625 192.867188 203.589844 193.046875 C 203.820312 193.179688 204.082031 193.242188 204.34375 193.242188 C 204.523438 193.242188 204.722656 193.210938 204.902344 193.144531 C 205.148438 193.0625 205.359375 192.933594 205.523438 192.769531 C 205.574219 192.867188 205.605469 192.964844 205.65625 193.078125 C 205.65625 193.097656 205.671875 193.113281 205.671875 193.128906 C 205.671875 193.144531 205.6875 193.144531 205.6875 193.160156 C 206.226562 194.539062 206.488281 196.140625 206.144531 197.582031 Z M 206.179688 192.457031 C 206.0625 192.210938 205.949219 192 205.835938 191.769531 C 206.554688 191.082031 207.210938 190.902344 207.539062 190.871094 C 207.160156 191.476562 206.671875 192.097656 206.179688 192.457031 Z M 206.179688 192.457031 " fill-opacity="1" fill-rule="nonzero"/><path fill="#d10e36" d="M 201.234375 193.71875 C 200.675781 193.71875 200.21875 194.191406 200.21875 194.78125 C 200.21875 195.371094 200.675781 195.847656 201.234375 195.847656 C 201.789062 195.847656 202.25 195.371094 202.25 194.78125 C 202.25 194.191406 201.789062 193.71875 201.234375 193.71875 Z M 201.234375 195.09375 C 201.085938 195.09375 200.972656 194.960938 200.972656 194.78125 C 200.972656 194.617188 201.085938 194.472656 201.234375 194.472656 C 201.382812 194.472656 201.496094 194.601562 201.496094 194.78125 C 201.480469 194.945312 201.363281 195.09375 201.234375 195.09375 Z M 201.234375 195.09375 " fill-opacity="1" fill-rule="nonzero"/><path fill="#d10e36" d="M 195.46875 193.71875 C 194.914062 193.71875 194.453125 194.191406 194.453125 194.78125 C 194.453125 195.371094 194.914062 195.847656 195.46875 195.847656 C 196.027344 195.847656 196.484375 195.371094 196.484375 194.78125 C 196.484375 194.191406 196.027344 193.71875 195.46875 193.71875 Z M 195.46875 195.09375 C 195.324219 195.09375 195.207031 194.960938 195.207031 194.78125 C 195.207031 194.617188 195.324219 194.472656 195.46875 194.472656 C 195.617188 194.472656 195.730469 194.601562 195.730469 194.78125 C 195.730469 194.945312 195.617188 195.09375 195.46875 195.09375 Z M 195.46875 195.09375 " fill-opacity="1" fill-rule="nonzero"/><path fill="#d10e36" d="M 196.074219 199.367188 C 195.648438 199.367188 195.304688 199.710938 195.304688 200.136719 C 195.304688 200.5625 195.648438 200.90625 196.074219 200.90625 C 196.5 200.90625 196.84375 200.5625 196.84375 200.136719 C 196.84375 199.726562 196.5 199.367188 196.074219 199.367188 Z M 196.074219 200.136719 C 196.09375 200.136719 196.09375 200.136719 196.074219 200.136719 Z M 196.074219 200.136719 " fill-opacity="1" fill-rule="nonzero"/><path fill="#d10e36" d="M 200.136719 199.367188 C 199.710938 199.367188 199.367188 199.710938 199.367188 200.136719 C 199.367188 200.5625 199.710938 200.90625 200.136719 200.90625 C 200.5625 200.90625 200.90625 200.5625 200.90625 200.136719 C 200.921875 199.726562 200.578125 199.367188 200.136719 199.367188 Z M 200.136719 200.136719 C 200.152344 200.136719 200.152344 200.136719 200.136719 200.136719 Z M 200.136719 200.136719 " fill-opacity="1" fill-rule="nonzero"/><path fill="#d10e36" d="M 178.246094 205.230469 C 178.488281 205.230469 178.734375 205.132812 178.933594 204.96875 C 179.160156 204.769531 179.277344 204.492188 179.277344 204.183594 L 178.964844 182.945312 C 178.964844 182.421875 178.554688 181.976562 178.03125 181.929688 L 171.054688 181.289062 C 170.761719 181.273438 170.484375 181.355469 170.269531 181.550781 C 170.058594 181.75 169.941406 182.027344 169.941406 182.304688 L 169.875 203.25 C 169.875 203.773438 170.269531 204.199219 170.777344 204.261719 L 178.128906 205.195312 C 178.164062 205.214844 178.195312 205.230469 178.246094 205.230469 Z M 170.613281 203.265625 L 170.679688 182.320312 C 170.679688 182.238281 170.710938 182.175781 170.761719 182.125 C 170.808594 182.078125 170.875 182.058594 170.941406 182.058594 C 170.941406 182.058594 170.957031 182.058594 170.957031 182.058594 L 177.933594 182.699219 C 178.0625 182.714844 178.179688 182.828125 178.179688 182.960938 L 178.488281 204.199219 C 178.488281 204.296875 178.441406 204.378906 178.390625 204.394531 C 178.359375 204.425781 178.292969 204.476562 178.179688 204.460938 L 170.828125 203.527344 C 170.726562 203.527344 170.613281 203.410156 170.613281 203.265625 Z M 170.613281 203.265625 " fill-opacity="1" fill-rule="nonzero"/><path fill="#d10e36" d="M 176.820312 184.1875 L 171.957031 183.761719 C 171.824219 183.746094 171.710938 183.84375 171.695312 183.976562 C 171.679688 184.105469 171.777344 184.222656 171.90625 184.238281 L 176.769531 184.664062 C 176.769531 184.664062 176.785156 184.664062 176.785156 184.664062 C 176.902344 184.664062 177.015625 184.566406 177.015625 184.449219 C 177.050781 184.320312 176.949219 184.203125 176.820312 184.1875 Z M 176.820312 184.1875 " fill-opacity="1" fill-rule="nonzero"/><path fill="#d10e36" d="M 176.820312 186.332031 L 171.957031 185.90625 C 171.824219 185.890625 171.710938 185.988281 171.695312 186.121094 C 171.679688 186.25 171.777344 186.367188 171.90625 186.382812 L 176.769531 186.808594 C 176.769531 186.808594 176.785156 186.808594 176.785156 186.808594 C 176.902344 186.808594 177.015625 186.710938 177.015625 186.59375 C 177.050781 186.464844 176.949219 186.351562 176.820312 186.332031 Z M 176.820312 186.332031 " fill-opacity="1" fill-rule="nonzero"/><path fill="#d10e36" d="M 176.820312 188.480469 L 171.957031 188.054688 C 171.824219 188.054688 171.710938 188.132812 171.695312 188.265625 C 171.679688 188.398438 171.777344 188.511719 171.90625 188.527344 L 176.769531 188.953125 C 176.769531 188.953125 176.785156 188.953125 176.785156 188.953125 C 176.902344 188.953125 177.015625 188.855469 177.015625 188.742188 C 177.050781 188.59375 176.949219 188.480469 176.820312 188.480469 Z M 176.820312 188.480469 " fill-opacity="1" fill-rule="nonzero"/><path fill="#d10e36" d="M 176.820312 190.605469 L 171.957031 190.199219 C 171.824219 190.179688 171.710938 190.28125 171.695312 190.410156 C 171.679688 190.542969 171.777344 190.65625 171.90625 190.671875 L 176.769531 191.082031 C 176.769531 191.082031 176.785156 191.082031 176.785156 191.082031 C 176.902344 191.082031 177.015625 190.984375 177.015625 190.871094 C 177.050781 190.738281 176.949219 190.625 176.820312 190.605469 Z M 176.820312 190.605469 " fill-opacity="1" fill-rule="nonzero"/><path fill="#d10e36" d="M 176.820312 192.753906 L 171.957031 192.34375 C 171.824219 192.328125 171.710938 192.425781 171.695312 192.554688 C 171.679688 192.6875 171.777344 192.800781 171.90625 192.816406 L 176.769531 193.226562 C 176.769531 193.226562 176.785156 193.226562 176.785156 193.226562 C 176.902344 193.226562 177.015625 193.128906 177.015625 193.015625 C 177.050781 192.882812 176.949219 192.769531 176.820312 192.753906 Z M 176.820312 192.753906 " fill-opacity="1" fill-rule="nonzero"/><path fill="#d10e36" d="M 176.820312 194.898438 L 171.957031 194.472656 C 171.824219 194.457031 171.710938 194.554688 171.695312 194.683594 C 171.679688 194.816406 171.777344 194.929688 171.90625 194.945312 L 176.769531 195.371094 C 176.769531 195.371094 176.785156 195.371094 176.785156 195.371094 C 176.902344 195.371094 177.015625 195.273438 177.015625 195.160156 C 177.050781 195.011719 176.949219 194.898438 176.820312 194.898438 Z M 176.820312 194.898438 " fill-opacity="1" fill-rule="nonzero"/><path fill="#d10e36" d="M 176.820312 197.027344 L 171.957031 196.601562 C 171.824219 196.601562 171.710938 196.683594 171.695312 196.8125 C 171.679688 196.945312 171.777344 197.058594 171.90625 197.074219 L 176.769531 197.5 C 176.769531 197.5 176.785156 197.5 176.785156 197.5 C 176.902344 197.5 177.015625 197.402344 177.015625 197.289062 C 177.050781 197.15625 176.949219 197.042969 176.820312 197.027344 Z M 176.820312 197.027344 " fill-opacity="1" fill-rule="nonzero"/><path fill="#d10e36" d="M 176.820312 199.171875 L 171.957031 198.746094 C 171.824219 198.730469 171.710938 198.828125 171.695312 198.957031 C 171.679688 199.089844 171.777344 199.203125 171.90625 199.21875 L 176.769531 199.644531 C 176.769531 199.644531 176.785156 199.644531 176.785156 199.644531 C 176.902344 199.644531 177.015625 199.546875 177.015625 199.433594 C 177.050781 199.300781 176.949219 199.1875 176.820312 199.171875 Z M 176.820312 199.171875 " fill-opacity="1" fill-rule="nonzero"/><path fill="#d10e36" d="M 176.820312 201.316406 L 171.957031 200.90625 C 171.824219 200.890625 171.710938 200.988281 171.695312 201.121094 C 171.679688 201.25 171.777344 201.367188 171.90625 201.382812 L 176.769531 201.789062 C 176.769531 201.789062 176.785156 201.789062 176.785156 201.789062 C 176.902344 201.789062 177.015625 201.691406 177.015625 201.578125 C 177.050781 201.429688 176.949219 201.316406 176.820312 201.316406 Z M 176.820312 201.316406 " fill-opacity="1" fill-rule="nonzero"/><path fill="#d10e36" d="M 191.820312 153.503906 C 193.046875 153.4375 193.652344 153.46875 194.242188 153.488281 C 194.554688 153.503906 194.863281 153.503906 195.257812 153.503906 C 195.632812 153.503906 196.09375 153.488281 196.683594 153.46875 L 197.746094 153.46875 C 197.878906 153.46875 197.976562 153.371094 197.976562 153.242188 C 197.976562 153.109375 197.878906 153.011719 197.746094 153.011719 L 196.664062 153.011719 C 195.4375 153.078125 194.832031 153.042969 194.242188 153.027344 C 193.636719 153.011719 193.03125 152.980469 191.785156 153.042969 C 191.65625 153.042969 191.554688 153.160156 191.554688 153.289062 C 191.574219 153.40625 191.671875 153.503906 191.820312 153.503906 Z M 191.820312 153.503906 " fill-opacity="1" fill-rule="nonzero"/><path fill="#d10e36" d="M 199.171875 153.289062 L 199.710938 153.289062 C 199.84375 153.289062 199.941406 153.191406 199.941406 153.0625 C 199.941406 152.929688 199.84375 152.832031 199.710938 152.832031 L 199.171875 152.832031 C 199.039062 152.832031 198.941406 152.929688 198.941406 153.0625 C 198.941406 153.191406 199.039062 153.289062 199.171875 153.289062 Z M 199.171875 153.289062 " fill-opacity="1" fill-rule="nonzero"/><path fill="#d10e36" d="M 196.140625 164.144531 C 196.519531 164.34375 196.925781 164.375 197.304688 164.375 C 197.402344 164.375 197.484375 164.375 197.566406 164.375 C 197.695312 164.375 197.796875 164.261719 197.796875 164.128906 C 197.796875 164 197.679688 163.902344 197.566406 163.902344 C 197.171875 163.917969 196.714844 163.917969 196.371094 163.738281 C 196.074219 163.589844 195.863281 163.214844 195.992188 162.933594 C 196.058594 162.820312 196.011719 162.671875 195.878906 162.625 C 195.765625 162.558594 195.617188 162.605469 195.566406 162.738281 C 195.304688 163.246094 195.667969 163.882812 196.140625 164.144531 Z M 196.140625 164.144531 " fill-opacity="1" fill-rule="nonzero"/><path fill="#d10e36" d="M 198.695312 164.308594 C 198.710938 164.308594 198.746094 164.308594 198.761719 164.292969 L 199.054688 164.210938 C 199.1875 164.179688 199.253906 164.046875 199.21875 163.917969 C 199.1875 163.785156 199.054688 163.71875 198.925781 163.753906 L 198.628906 163.835938 C 198.5 163.867188 198.433594 164 198.464844 164.128906 C 198.5 164.246094 198.597656 164.308594 198.695312 164.308594 Z M 198.695312 164.308594 " fill-opacity="1" fill-rule="nonzero"/><path fill="#d10e36" d="M 184.285156 174.984375 C 185.039062 175.035156 185.777344 175.066406 186.53125 175.066406 C 188.050781 175.066406 189.574219 174.96875 191.066406 174.757812 C 191.195312 174.742188 191.292969 174.625 191.261719 174.496094 C 191.230469 174.363281 191.132812 174.28125 191 174.296875 C 188.789062 174.59375 186.546875 174.675781 184.304688 174.527344 C 184.171875 174.511719 184.058594 174.625 184.058594 174.757812 C 184.058594 174.855469 184.15625 174.96875 184.285156 174.984375 Z M 184.285156 174.984375 " fill-opacity="1" fill-rule="nonzero"/><path fill="#d10e36" d="M 192.636719 174.722656 C 192.652344 174.722656 192.652344 174.722656 192.671875 174.722656 L 193.339844 174.640625 C 193.472656 174.625 193.570312 174.511719 193.554688 174.378906 C 193.539062 174.25 193.421875 174.167969 193.292969 174.167969 L 192.621094 174.25 C 192.488281 174.265625 192.390625 174.378906 192.40625 174.511719 C 192.425781 174.640625 192.523438 174.722656 192.636719 174.722656 Z M 192.636719 174.722656 " fill-opacity="1" fill-rule="nonzero"/><path fill="#d10e36" d="M 212.402344 214.039062 L 212.402344 207.703125 C 212.402344 207.570312 212.304688 207.472656 212.171875 207.472656 C 212.039062 207.472656 211.941406 207.570312 211.941406 207.703125 L 211.941406 214.039062 C 211.941406 214.171875 212.039062 214.269531 212.171875 214.269531 C 212.304688 214.269531 212.402344 214.171875 212.402344 214.039062 Z M 212.402344 214.039062 " fill-opacity="1" fill-rule="nonzero"/><path fill="#d10e36" d="M 212.304688 216.054688 C 212.171875 216.054688 212.074219 216.152344 212.074219 216.28125 L 212.074219 217.183594 C 212.074219 217.3125 212.171875 217.414062 212.304688 217.414062 C 212.433594 217.414062 212.53125 217.3125 212.53125 217.183594 L 212.53125 216.28125 C 212.546875 216.152344 212.433594 216.054688 212.304688 216.054688 Z M 212.304688 216.054688 " fill-opacity="1" fill-rule="nonzero"/><path fill="#d10e36" d="M 169.335938 174.101562 C 169.207031 174.101562 169.105469 174.199219 169.105469 174.332031 L 169.105469 177 C 169.105469 177.132812 169.207031 177.230469 169.335938 177.230469 C 169.46875 177.230469 169.566406 177.132812 169.566406 177 L 169.566406 174.347656 C 169.566406 174.214844 169.46875 174.101562 169.335938 174.101562 Z M 169.335938 174.101562 " fill-opacity="1" fill-rule="nonzero"/><path fill="#d10e36" d="M 179.128906 208.472656 L 179.128906 210.894531 C 179.128906 211.027344 179.226562 211.125 179.359375 211.125 C 179.488281 211.125 179.585938 211.027344 179.585938 210.894531 L 179.585938 208.472656 C 179.585938 208.339844 179.488281 208.242188 179.359375 208.242188 C 179.226562 208.242188 179.128906 208.339844 179.128906 208.472656 Z M 179.128906 208.472656 " fill-opacity="1" fill-rule="nonzero"/><path fill="#d10e36" d="M 179.113281 212.597656 C 178.980469 212.597656 178.882812 212.695312 178.882812 212.828125 L 178.882812 213.433594 C 178.882812 213.5625 178.980469 213.664062 179.113281 213.664062 C 179.242188 213.664062 179.339844 213.5625 179.339844 213.433594 L 179.339844 212.828125 C 179.359375 212.710938 179.242188 212.597656 179.113281 212.597656 Z M 179.113281 212.597656 " fill-opacity="1" fill-rule="nonzero"/></svg>