<svg xmlns="http://www.w3.org/2000/svg" xmlns:xlink="http://www.w3.org/1999/xlink" width="500" zoomAndPan="magnify" viewBox="0 0 375 374.999991" height="500" preserveAspectRatio="xMidYMid meet" version="1.0"><defs><clipPath id="9e89ed2fe0"><path d="M 97 89.0625 L 278 89.0625 L 278 286 L 97 286 Z M 97 89.0625 " clip-rule="nonzero"/></clipPath></defs><g clip-path="url(#9e89ed2fe0)"><path fill="#d10e36" d="M 162.027344 227.355469 L 155.40625 233.976562 C 154.597656 234.785156 153.289062 234.785156 152.480469 233.976562 L 148.667969 230.164062 C 146.742188 228.238281 149.667969 225.3125 151.59375 227.238281 L 153.941406 229.585938 L 159.101562 224.425781 C 161.027344 222.5 163.953125 225.429688 162.027344 227.355469 Z M 233.226562 149.148438 L 183.246094 149.148438 C 180.550781 149.148438 180.511719 153.308594 183.246094 153.308594 L 233.226562 153.308594 C 235.921875 153.308594 235.960938 149.148438 233.226562 149.148438 Z M 159.101562 185.421875 L 153.941406 190.582031 L 151.59375 188.230469 C 149.667969 186.304688 146.742188 189.234375 148.667969 191.15625 L 152.480469 194.96875 C 153.289062 195.777344 154.597656 195.777344 155.40625 194.96875 L 162.027344 188.347656 C 163.953125 186.421875 161.027344 183.496094 159.101562 185.421875 Z M 233.226562 197.972656 L 183.246094 197.972656 C 180.550781 197.972656 180.511719 202.132812 183.246094 202.132812 L 233.226562 202.132812 C 235.921875 202.132812 235.960938 198.011719 233.226562 197.972656 Z M 273.503906 234.246094 C 273.503906 234.246094 248.820312 247.414062 248.820312 247.375 L 248.820312 261.816406 C 248.820312 265.898438 245.507812 269.210938 241.425781 269.210938 L 207.890625 269.210938 L 178.199219 285.035156 C 177.085938 285.613281 175.929688 285.882812 174.773438 285.882812 C 172.15625 285.882812 169.574219 284.457031 168.265625 281.992188 L 161.449219 269.246094 L 133.535156 269.246094 C 129.492188 269.246094 126.179688 265.9375 126.179688 261.855469 L 126.179688 202.941406 L 98.492188 150.957031 C 96.570312 147.492188 97.992188 142.757812 101.535156 140.984375 L 126.179688 127.855469 L 126.179688 113.414062 C 126.179688 109.371094 129.492188 106.058594 133.535156 106.058594 L 167.148438 106.058594 L 196.835938 90.234375 C 198.570312 89.308594 200.574219 89.117188 202.460938 89.695312 C 204.347656 90.273438 205.886719 91.542969 206.8125 93.277344 L 213.585938 106.023438 L 241.503906 106.023438 C 245.585938 106.023438 248.898438 109.332031 248.898438 113.375 L 248.898438 172.289062 L 276.582031 224.234375 C 278.429688 227.816406 277.082031 232.28125 273.503906 234.246094 Z M 126.140625 132.589844 L 103.460938 144.679688 C 101.921875 145.453125 101.304688 147.53125 102.113281 149.03125 L 126.140625 194.121094 Z M 175.96875 106.058594 L 208.851562 106.058594 L 203.113281 95.238281 C 202.34375 93.699219 200.265625 93.082031 198.761719 93.890625 Z M 199.03125 269.210938 L 166.148438 269.210938 L 171.925781 280.03125 C 172.773438 281.609375 174.695312 282.1875 176.277344 281.378906 Z M 244.699219 113.414062 C 244.699219 111.644531 243.238281 110.21875 241.464844 110.21875 L 133.496094 110.21875 C 131.722656 110.21875 130.300781 111.644531 130.300781 113.414062 L 130.300781 261.816406 C 130.300781 263.585938 131.722656 265.050781 133.496094 265.050781 L 241.464844 265.050781 C 243.238281 265.050781 244.699219 263.585938 244.699219 261.816406 Z M 272.847656 226.199219 L 248.859375 181.148438 L 248.859375 242.679688 L 271.539062 230.589844 C 273.078125 229.742188 273.695312 227.777344 272.847656 226.199219 Z M 183.246094 143.449219 L 207.386719 143.449219 C 208.542969 143.449219 209.46875 142.523438 209.46875 141.371094 C 209.46875 140.214844 208.542969 139.289062 207.386719 139.289062 L 183.246094 139.289062 C 180.511719 139.289062 180.511719 143.449219 183.246094 143.449219 Z M 183.246094 182.417969 L 207.386719 182.417969 C 208.542969 182.417969 209.46875 181.492188 209.46875 180.335938 C 209.46875 179.183594 208.542969 178.257812 207.386719 178.257812 L 183.246094 178.257812 C 180.511719 178.257812 180.511719 182.417969 183.246094 182.417969 Z M 170.613281 229.203125 C 169.882812 249.378906 140.8125 249.378906 140.117188 229.203125 C 140.117188 220.808594 146.972656 213.953125 155.367188 213.953125 C 163.761719 213.953125 170.613281 220.769531 170.613281 229.203125 Z M 155.367188 218.074219 C 140.695312 218.535156 140.695312 239.789062 155.367188 240.253906 C 170 239.828125 170 218.535156 155.367188 218.074219 Z M 170.613281 151.226562 C 169.882812 171.40625 140.8125 171.40625 140.117188 151.226562 C 140.117188 142.832031 146.972656 135.980469 155.367188 135.980469 C 163.761719 135.980469 170.613281 142.832031 170.613281 151.226562 Z M 155.367188 140.136719 C 140.695312 140.601562 140.695312 161.855469 155.367188 162.316406 C 170 161.855469 170 140.601562 155.367188 140.136719 Z M 233.226562 236.980469 L 183.246094 236.980469 C 180.550781 236.980469 180.511719 241.136719 183.246094 241.136719 L 233.226562 241.136719 C 235.921875 241.101562 235.960938 236.980469 233.226562 236.980469 Z M 183.246094 221.386719 L 207.386719 221.386719 C 208.542969 221.386719 209.46875 220.460938 209.46875 219.304688 C 209.46875 218.152344 208.542969 217.226562 207.386719 217.226562 L 183.246094 217.226562 C 180.511719 217.265625 180.511719 221.386719 183.246094 221.386719 Z M 233.226562 227.121094 L 183.246094 227.121094 C 180.550781 227.121094 180.511719 231.28125 183.246094 231.28125 L 233.226562 231.28125 C 235.921875 231.242188 235.960938 227.121094 233.226562 227.121094 Z M 233.226562 159.003906 L 183.246094 159.003906 C 180.550781 159.003906 180.511719 163.164062 183.246094 163.164062 L 233.226562 163.164062 C 235.921875 163.164062 235.960938 159.003906 233.226562 159.003906 Z M 170.613281 190.195312 C 169.882812 210.371094 140.8125 210.371094 140.117188 190.195312 C 140.117188 181.800781 146.972656 174.945312 155.367188 174.945312 C 163.761719 174.945312 170.613281 181.800781 170.613281 190.195312 Z M 155.367188 179.105469 C 140.695312 179.566406 140.695312 200.824219 155.367188 201.285156 C 170 200.824219 170 179.566406 155.367188 179.105469 Z M 233.226562 188.117188 L 183.246094 188.117188 C 180.550781 188.117188 180.511719 192.273438 183.246094 192.273438 L 233.226562 192.273438 C 235.921875 192.273438 235.960938 188.15625 233.226562 188.117188 Z M 159.101562 146.453125 L 153.941406 151.613281 L 151.59375 149.261719 C 149.667969 147.339844 146.742188 150.265625 148.667969 152.191406 L 152.480469 156.003906 C 153.25 156.8125 154.636719 156.8125 155.40625 156.003906 L 162.027344 149.378906 C 163.953125 147.453125 161.027344 144.527344 159.101562 146.453125 Z M 159.101562 146.453125 " fill-opacity="1" fill-rule="nonzero"/></g></svg>