<svg xmlns="http://www.w3.org/2000/svg" xmlns:xlink="http://www.w3.org/1999/xlink" width="500" zoomAndPan="magnify" viewBox="0 0 375 374.999991" height="500" preserveAspectRatio="xMidYMid meet" version="1.0"><defs><g/><clipPath id="91cf0c58ec"><path d="M 5.035156 143.9375 L 92.035156 143.9375 L 92.035156 230.9375 L 5.035156 230.9375 Z M 5.035156 143.9375 " clip-rule="nonzero"/></clipPath></defs><g clip-path="url(#91cf0c58ec)"><path fill="#000000" d="M 48.59375 143.9375 C 24.535156 143.9375 5.035156 163.4375 5.035156 187.492188 C 5.035156 189.226562 5.136719 190.933594 5.332031 192.613281 C 5.320312 192.179688 5.3125 191.746094 5.3125 191.304688 C 5.3125 167.765625 24.109375 148.617188 47.507812 148.042969 C 47.671875 148.039062 47.832031 148.035156 47.992188 148.03125 L 48.03125 148.03125 C 48.222656 148.027344 48.40625 148.027344 48.59375 148.027344 C 48.78125 148.027344 48.964844 148.027344 49.152344 148.03125 L 49.191406 148.03125 C 59.511719 148.183594 69.1875 152.273438 76.5 159.585938 C 83.953125 167.039062 88.0625 176.953125 88.0625 187.492188 C 88.0625 192.585938 87.101562 197.53125 85.269531 202.125 C 79.105469 199.289062 75.253906 194.214844 72.007812 188.335938 C 72.265625 188.453125 72.382812 188.507812 72.503906 188.558594 C 75.417969 189.695312 78.277344 189.722656 80.9375 187.90625 C 83.289062 186.300781 84.847656 184.054688 85.78125 181.371094 C 86.03125 180.65625 85.878906 180.222656 85.1875 179.90625 C 84.523438 179.601562 83.835938 179.347656 83.132812 179.152344 C 80.488281 178.425781 77.871094 178.367188 75.390625 179.722656 C 74.472656 180.222656 73.636719 180.886719 72.773438 181.492188 C 72.484375 181.695312 72.175781 181.828125 71.863281 181.902344 C 70.910156 182.125 69.933594 181.757812 69.375 181 L 71.363281 179.675781 C 71.40625 179.652344 71.449219 179.621094 71.492188 179.59375 C 73.230469 178.417969 74.382812 176.359375 74.382812 174.019531 C 74.382812 173.617188 74.347656 173.226562 74.285156 172.847656 C 74.285156 172.84375 74.285156 172.84375 74.28125 172.839844 C 74.078125 171.960938 73.753906 171.125 73.332031 170.351562 C 73.078125 169.882812 72.785156 169.4375 72.460938 169.019531 C 72.015625 168.488281 71.53125 167.996094 71.027344 167.527344 C 70.992188 167.5 70.960938 167.46875 70.929688 167.441406 C 70.929688 167.441406 70.925781 167.4375 70.925781 167.4375 C 70.042969 166.707031 69.03125 166.128906 67.929688 165.738281 C 67.773438 165.683594 67.617188 165.632812 67.457031 165.585938 C 67.449219 165.667969 67.449219 165.75 67.464844 165.8125 C 67.542969 166.070312 67.625 166.324219 67.71875 166.578125 C 67.820312 166.851562 67.921875 167.125 68.023438 167.402344 C 68.058594 167.496094 68.09375 167.589844 68.128906 167.683594 C 68.375 168.371094 68.664062 169.050781 68.894531 169.746094 C 68.910156 169.796875 68.925781 169.84375 68.941406 169.894531 C 69 170.085938 69.054688 170.277344 69.101562 170.46875 C 69.425781 171.824219 68.789062 172.976562 67.535156 173.566406 C 66.601562 174.003906 66.289062 174.015625 65.640625 173.5 C 65.546875 173.425781 65.445312 173.339844 65.332031 173.238281 C 65.308594 173.21875 65.289062 173.203125 65.269531 173.183594 C 65.078125 173.050781 64.867188 172.949219 64.640625 172.878906 C 64.472656 172.820312 64.296875 172.785156 64.113281 172.769531 C 64.046875 172.761719 63.972656 172.761719 63.902344 172.761719 C 63.707031 172.761719 63.511719 172.785156 63.324219 172.828125 C 63.320312 172.832031 63.3125 172.832031 63.304688 172.835938 C 63.25 172.851562 63.195312 172.867188 63.144531 172.882812 C 62.738281 173.003906 62.320312 173.109375 61.894531 173.199219 C 60.832031 173.429688 59.726562 173.546875 58.59375 173.546875 C 57.609375 173.546875 56.652344 173.460938 55.71875 173.285156 C 55.539062 173.253906 55.363281 173.214844 55.1875 173.179688 C 55.121094 173.171875 55.050781 173.171875 54.980469 173.171875 C 54.527344 173.171875 54.101562 173.292969 53.738281 173.507812 C 53.710938 173.527344 53.679688 173.550781 53.648438 173.566406 C 52.769531 174.101562 51.828125 174.316406 50.855469 174.320312 C 50.417969 174.324219 49.976562 174.28125 49.527344 174.203125 C 49.300781 174.167969 49.082031 174.113281 48.871094 174.050781 C 48.535156 173.953125 48.222656 173.820312 47.933594 173.660156 C 47.867188 173.621094 47.796875 173.582031 47.730469 173.539062 C 46.710938 172.921875 45.851562 172.058594 45.234375 171.035156 C 45.085938 170.789062 44.953125 170.539062 44.835938 170.28125 C 44.433594 169.402344 44.203125 168.4375 44.175781 167.417969 C 44.011719 167.722656 43.867188 168.03125 43.738281 168.347656 C 43.460938 169.011719 43.257812 169.710938 43.121094 170.433594 C 43.078125 170.644531 43.046875 170.855469 43.027344 171.066406 C 42.738281 173.65625 43.832031 176.0625 46.050781 177.550781 C 46.375 177.765625 46.730469 177.9375 47.101562 178.117188 C 46.476562 178.691406 45.949219 179.367188 45.554688 180.121094 C 45.550781 180.125 45.550781 180.125 45.550781 180.128906 C 45.507812 180.207031 45.46875 180.292969 45.4375 180.378906 C 45.433594 180.378906 45.429688 180.375 45.425781 180.375 C 45.277344 180.285156 45.121094 180.199219 44.964844 180.121094 C 44.964844 180.121094 44.960938 180.121094 44.960938 180.121094 C 44.890625 180.085938 44.820312 180.050781 44.753906 180.019531 L 44.75 180.019531 C 44.683594 179.984375 44.613281 179.953125 44.542969 179.921875 C 43.535156 179.484375 42.417969 179.242188 41.25 179.242188 C 39.335938 179.242188 37.578125 179.890625 36.183594 180.976562 C 36.195312 181.03125 36.210938 181.09375 36.222656 181.148438 C 36.253906 181.285156 36.289062 181.414062 36.328125 181.542969 C 36.351562 181.621094 36.375 181.695312 36.398438 181.773438 C 36.425781 181.851562 36.453125 181.925781 36.480469 182 C 36.503906 182.066406 36.527344 182.132812 36.550781 182.195312 C 36.585938 182.28125 36.617188 182.363281 36.652344 182.445312 C 37.710938 184.917969 39.941406 186.765625 42.644531 187.292969 C 42.648438 187.292969 42.65625 187.296875 42.660156 187.296875 C 42.5625 187.414062 42.503906 187.496094 42.4375 187.570312 C 42.214844 187.808594 42 188.046875 41.765625 188.273438 C 41.492188 188.53125 41.210938 188.789062 40.921875 189.03125 C 42.65625 188.542969 44.140625 187.460938 45.144531 186.023438 C 45.324219 185.761719 45.492188 185.488281 45.640625 185.207031 C 45.640625 185.203125 45.644531 185.199219 45.644531 185.195312 C 45.664062 185.152344 45.683594 185.109375 45.699219 185.070312 C 45.726562 185.019531 45.746094 184.96875 45.769531 184.917969 C 45.796875 184.851562 45.824219 184.78125 45.851562 184.714844 C 45.875 184.652344 45.902344 184.589844 45.925781 184.527344 C 45.949219 184.460938 45.972656 184.394531 45.996094 184.328125 C 46.015625 184.265625 46.035156 184.199219 46.058594 184.136719 C 46.058594 184.128906 46.058594 184.125 46.0625 184.117188 C 46.078125 184.0625 46.09375 184.003906 46.113281 183.949219 C 46.171875 183.738281 46.226562 183.523438 46.269531 183.308594 C 46.277344 183.28125 46.28125 183.261719 46.285156 183.234375 C 46.292969 183.207031 46.296875 183.179688 46.300781 183.152344 C 46.316406 183.09375 46.324219 183.035156 46.335938 182.976562 C 46.335938 182.972656 46.335938 182.972656 46.335938 182.96875 C 46.339844 182.945312 46.34375 182.921875 46.347656 182.894531 C 46.367188 182.785156 46.382812 182.671875 46.398438 182.558594 C 46.40625 182.503906 46.414062 182.445312 46.417969 182.386719 C 46.425781 182.324219 46.433594 182.261719 46.4375 182.199219 C 46.441406 182.171875 46.441406 182.144531 46.445312 182.117188 C 46.445312 182.09375 46.449219 182.074219 46.453125 182.050781 C 46.453125 182.027344 46.457031 182 46.457031 181.976562 C 46.457031 181.960938 46.457031 181.945312 46.460938 181.929688 L 46.460938 181.925781 C 46.460938 181.910156 46.460938 181.898438 46.464844 181.886719 C 46.585938 180.75 47.238281 179.773438 48.167969 179.203125 C 48.167969 179.203125 48.171875 179.203125 48.171875 179.203125 L 48.363281 179.09375 L 49.441406 178.492188 L 49.9375 178.214844 L 51.96875 177.078125 L 53.101562 176.445312 C 53.199219 176.398438 53.296875 176.359375 53.402344 176.316406 C 54.054688 176.0625 54.75 175.890625 55.476562 175.832031 C 55.5625 175.832031 55.648438 175.832031 55.738281 175.828125 C 55.828125 175.828125 55.917969 175.824219 56.003906 175.820312 L 56.046875 175.820312 C 56.101562 175.816406 56.160156 175.8125 56.21875 175.808594 C 56.234375 175.808594 56.253906 175.808594 56.269531 175.808594 C 56.300781 175.804688 56.328125 175.800781 56.355469 175.800781 C 56.410156 175.796875 56.46875 175.792969 56.523438 175.785156 C 56.566406 175.78125 56.613281 175.78125 56.65625 175.773438 C 56.738281 175.765625 56.820312 175.753906 56.902344 175.746094 C 56.949219 175.742188 56.996094 175.734375 57.039062 175.726562 C 57.09375 175.722656 57.152344 175.714844 57.207031 175.707031 C 57.269531 175.699219 57.328125 175.6875 57.390625 175.679688 C 57.46875 175.667969 57.542969 175.652344 57.613281 175.640625 C 57.691406 175.628906 57.765625 175.617188 57.839844 175.601562 C 57.863281 175.59375 57.890625 175.589844 57.917969 175.585938 C 57.925781 175.585938 57.925781 175.585938 57.933594 175.582031 C 57.960938 175.578125 57.988281 175.574219 58.015625 175.566406 C 58.035156 175.5625 58.058594 175.554688 58.078125 175.550781 C 58.089844 175.550781 58.101562 175.546875 58.117188 175.542969 C 58.375 175.492188 58.640625 175.433594 58.914062 175.378906 C 59.003906 175.359375 59.09375 175.339844 59.1875 175.324219 C 59.46875 175.269531 59.75 175.222656 60.035156 175.1875 C 60.398438 175.144531 60.722656 175.21875 61.003906 175.386719 C 61.0625 175.421875 61.117188 175.457031 61.171875 175.5 C 61.199219 175.519531 61.226562 175.542969 61.25 175.5625 C 61.355469 175.652344 61.449219 175.757812 61.539062 175.875 C 61.5625 175.902344 61.582031 175.933594 61.605469 175.960938 C 61.613281 175.976562 61.621094 175.988281 61.628906 176 L 61.648438 176.027344 C 61.6875 176.082031 61.726562 176.144531 61.761719 176.203125 C 61.894531 176.402344 62.011719 176.601562 62.125 176.808594 C 62.214844 176.976562 62.300781 177.144531 62.382812 177.316406 C 62.417969 177.394531 62.453125 177.476562 62.492188 177.554688 C 62.492188 177.558594 62.492188 177.5625 62.496094 177.566406 C 62.53125 177.648438 62.570312 177.734375 62.601562 177.824219 C 62.636719 177.910156 62.671875 177.996094 62.703125 178.082031 C 62.730469 178.152344 62.757812 178.226562 62.785156 178.304688 C 62.785156 178.304688 62.785156 178.304688 62.785156 178.308594 C 62.804688 178.367188 62.828125 178.433594 62.847656 178.496094 C 62.867188 178.558594 62.886719 178.621094 62.90625 178.6875 C 62.925781 178.753906 62.945312 178.816406 62.960938 178.882812 C 62.890625 178.855469 62.820312 178.828125 62.75 178.804688 C 62.675781 178.78125 62.605469 178.757812 62.539062 178.734375 C 62.464844 178.714844 62.394531 178.695312 62.328125 178.675781 C 62.257812 178.65625 62.191406 178.640625 62.117188 178.621094 C 62.101562 178.617188 62.089844 178.617188 62.074219 178.613281 C 62.007812 178.59375 61.9375 178.582031 61.875 178.570312 C 61.855469 178.566406 61.84375 178.566406 61.828125 178.558594 L 61.824219 178.558594 C 61.738281 178.542969 61.652344 178.527344 61.566406 178.515625 C 61.480469 178.503906 61.394531 178.496094 61.308594 178.488281 C 61.261719 178.484375 61.21875 178.480469 61.175781 178.476562 C 60.464844 178.425781 59.785156 178.515625 59.132812 178.71875 C 59.039062 178.75 58.941406 178.78125 58.851562 178.816406 L 58.847656 178.816406 C 58.753906 178.851562 58.660156 178.890625 58.566406 178.925781 C 58.523438 178.949219 58.472656 178.96875 58.429688 178.988281 L 55.644531 181.101562 L 52.222656 183.871094 L 45.390625 189.398438 L 45.375 189.414062 L 43.78125 190.699219 C 43.773438 190.707031 43.769531 190.710938 43.761719 190.714844 C 43.617188 190.816406 43.472656 190.917969 43.328125 191.015625 C 43.3125 191.027344 43.292969 191.039062 43.273438 191.054688 C 43.1875 191.113281 43.097656 191.175781 43.007812 191.238281 C 41.796875 192.039062 40.347656 192.503906 38.785156 192.503906 C 38.726562 192.503906 38.667969 192.503906 38.609375 192.503906 L 38.570312 192.503906 C 36.988281 192.503906 35.519531 193 34.320312 193.847656 C 34.140625 194.011719 33.960938 194.179688 33.78125 194.34375 C 33.3125 194.78125 33.1875 195.40625 33.382812 196.050781 C 33.863281 197.628906 34.308594 199.214844 34.839844 200.777344 C 35.234375 201.945312 36.15625 202.542969 37.335938 202.804688 C 37.683594 202.878906 38.042969 203.046875 38.324219 203.261719 C 38.851562 203.664062 39.328125 204.128906 39.839844 204.546875 C 39.945312 204.632812 40.054688 204.71875 40.164062 204.800781 C 40.535156 205.078125 40.917969 205.324219 41.308594 205.523438 C 41.742188 205.75 42.191406 205.921875 42.648438 206.03125 C 43.636719 206.28125 44.683594 206.242188 45.777344 205.84375 C 46.5 205.582031 47.183594 205.515625 47.917969 205.671875 C 50.222656 206.148438 52.285156 207.027344 53.796875 208.960938 C 54.042969 209.277344 54.28125 209.601562 54.507812 209.929688 C 55.085938 210.78125 55.589844 211.664062 56.019531 212.582031 C 56.578125 213.769531 57.011719 215.015625 57.34375 216.316406 C 57.453125 216.753906 57.550781 217.195312 57.625 217.640625 C 57.777344 218.523438 57.863281 219.425781 57.863281 220.386719 C 57.554688 220.351562 57.246094 220.324219 56.941406 220.296875 C 56.214844 220.226562 55.496094 220.164062 54.789062 220.082031 C 54.445312 220.042969 54.105469 220 53.765625 219.949219 C 50.960938 219.53125 48.253906 218.742188 45.589844 217.785156 C 43.460938 217.015625 41.335938 216.238281 39.179688 215.570312 C 37.679688 215.105469 36.136719 214.953125 34.566406 215.167969 C 34.546875 215.167969 34.53125 215.171875 34.515625 215.175781 C 34.308594 215.203125 34.09375 215.238281 33.886719 215.285156 C 33.910156 215.339844 33.957031 215.355469 34.003906 215.378906 C 34.066406 215.410156 34.132812 215.441406 34.195312 215.472656 C 34.308594 215.527344 34.421875 215.582031 34.539062 215.640625 C 37.707031 217.195312 40.859375 218.777344 44.050781 220.28125 C 46.910156 221.632812 49.910156 222.476562 53.015625 222.855469 C 53.699219 222.9375 54.382812 223 55.074219 223.035156 C 55.183594 223.042969 55.292969 223.046875 55.402344 223.050781 C 57.238281 223.140625 59.0625 223.113281 60.867188 222.964844 C 62.320312 222.847656 63.757812 222.652344 65.191406 222.378906 C 61.796875 223.496094 58.277344 224.332031 54.660156 224.863281 C 54.28125 224.921875 53.902344 224.972656 53.519531 225.023438 C 52.339844 225.175781 51.152344 225.296875 49.953125 225.382812 C 48.425781 225.492188 46.886719 225.546875 45.332031 225.546875 C 43.195312 225.546875 41.085938 225.441406 39.003906 225.234375 C 39.292969 225.457031 39.589844 225.667969 39.894531 225.867188 C 40.1875 226.050781 40.492188 226.222656 40.800781 226.386719 C 41.007812 226.492188 41.21875 226.59375 41.433594 226.6875 C 38.625 226.476562 35.855469 226.140625 33.125 225.6875 C 30.234375 225.203125 27.386719 224.589844 24.589844 223.847656 C 26.542969 225.140625 28.605469 226.277344 30.761719 227.246094 C 31.410156 227.539062 32.066406 227.8125 32.730469 228.074219 C 37.648438 230 42.996094 231.054688 48.59375 231.054688 C 57.464844 231.054688 65.710938 228.402344 72.59375 223.847656 C 72.996094 223.582031 73.394531 223.308594 73.789062 223.027344 C 75.566406 221.765625 77.246094 220.371094 78.8125 218.863281 C 78.835938 218.839844 78.859375 218.816406 78.882812 218.792969 C 79.578125 218.140625 80.253906 217.449219 80.90625 216.722656 C 81.320312 216.265625 81.71875 215.796875 82.105469 215.324219 C 83.011719 214.226562 83.871094 213.089844 84.671875 211.90625 C 88.488281 206.28125 91.023438 199.714844 91.851562 192.625 C 92.046875 190.941406 92.152344 189.230469 92.152344 187.492188 C 92.152344 163.4375 72.648438 143.9375 48.59375 143.9375 Z M 30.816406 227.199219 C 30.832031 227.179688 30.847656 227.167969 30.863281 227.152344 C 30.867188 227.152344 30.867188 227.152344 30.867188 227.152344 C 30.851562 227.167969 30.832031 227.183594 30.816406 227.199219 Z M 47.636719 203.210938 C 47.460938 203.222656 47.28125 203.234375 47.105469 203.25 C 47.015625 203.257812 46.925781 203.261719 46.835938 203.269531 C 46.660156 203.28125 46.488281 203.296875 46.3125 203.300781 L 46.308594 203.300781 C 45.984375 203.320312 45.664062 203.324219 45.339844 203.304688 C 45.285156 203.300781 45.230469 203.296875 45.171875 203.292969 C 45.15625 203.289062 45.140625 203.289062 45.121094 203.285156 C 45.0625 203.28125 45.003906 203.277344 44.945312 203.269531 C 44.863281 203.261719 44.777344 203.246094 44.695312 203.234375 C 44.613281 203.222656 44.53125 203.210938 44.449219 203.195312 C 44.433594 203.191406 44.421875 203.1875 44.40625 203.1875 C 44.328125 203.171875 44.25 203.152344 44.171875 203.136719 C 44.09375 203.117188 44.019531 203.101562 43.941406 203.082031 C 43.832031 203.050781 43.726562 203.019531 43.621094 202.984375 C 43.570312 202.96875 43.515625 202.949219 43.464844 202.929688 C 43.414062 202.910156 43.359375 202.894531 43.308594 202.871094 C 43.207031 202.832031 43.105469 202.792969 43.003906 202.746094 C 42.957031 202.722656 42.90625 202.699219 42.855469 202.675781 C 42.808594 202.652344 42.757812 202.628906 42.707031 202.605469 C 42.660156 202.578125 42.609375 202.554688 42.5625 202.527344 C 42.515625 202.5 42.46875 202.472656 42.417969 202.445312 C 42.410156 202.441406 42.402344 202.4375 42.394531 202.429688 C 42.355469 202.40625 42.316406 202.382812 42.277344 202.359375 C 42.230469 202.332031 42.1875 202.304688 42.140625 202.273438 C 42.097656 202.242188 42.050781 202.210938 42.003906 202.179688 C 41.957031 202.148438 41.914062 202.117188 41.871094 202.082031 C 41.808594 202.042969 41.75 201.996094 41.691406 201.949219 C 41.648438 201.917969 41.609375 201.886719 41.570312 201.851562 C 41.566406 201.847656 41.5625 201.847656 41.558594 201.84375 C 41.542969 201.832031 41.53125 201.816406 41.515625 201.804688 C 41.484375 201.78125 41.453125 201.753906 41.425781 201.730469 C 41.355469 201.667969 41.289062 201.605469 41.222656 201.542969 C 41.179688 201.503906 41.140625 201.464844 41.105469 201.425781 C 41.023438 201.347656 40.941406 201.261719 40.863281 201.175781 C 40.824219 201.128906 40.777344 201.082031 40.738281 201.03125 C 40.664062 200.949219 40.59375 200.863281 40.523438 200.777344 C 40.0625 200.195312 39.800781 199.511719 39.835938 198.742188 C 39.835938 198.695312 39.839844 198.652344 39.84375 198.609375 C 39.851562 198.523438 39.863281 198.445312 39.882812 198.375 C 39.886719 198.347656 39.894531 198.324219 39.902344 198.304688 C 39.902344 198.300781 39.902344 198.300781 39.90625 198.296875 C 39.90625 198.292969 39.90625 198.289062 39.90625 198.285156 C 39.910156 198.277344 39.914062 198.269531 39.914062 198.257812 C 39.921875 198.230469 39.929688 198.210938 39.941406 198.183594 C 39.945312 198.175781 39.949219 198.167969 39.953125 198.160156 C 39.957031 198.15625 39.957031 198.152344 39.960938 198.148438 C 39.960938 198.144531 39.960938 198.144531 39.960938 198.144531 C 39.964844 198.132812 39.972656 198.113281 39.980469 198.101562 C 39.980469 198.097656 39.984375 198.097656 39.984375 198.09375 C 39.988281 198.089844 39.988281 198.085938 39.992188 198.078125 C 40 198.0625 40.011719 198.046875 40.019531 198.03125 C 40.019531 198.03125 40.019531 198.027344 40.023438 198.027344 C 40.03125 198.011719 40.042969 198 40.054688 197.984375 C 40.066406 197.964844 40.082031 197.953125 40.097656 197.933594 C 40.117188 197.910156 40.140625 197.890625 40.164062 197.871094 C 40.207031 197.828125 40.261719 197.796875 40.316406 197.761719 L 40.320312 197.761719 C 40.347656 197.746094 40.378906 197.734375 40.410156 197.71875 C 40.441406 197.707031 40.476562 197.695312 40.511719 197.683594 C 40.582031 197.660156 40.65625 197.640625 40.742188 197.628906 C 40.78125 197.621094 40.824219 197.613281 40.871094 197.609375 C 41.070312 197.582031 41.28125 197.582031 41.476562 197.53125 C 42 197.386719 42.261719 196.960938 42.199219 196.394531 C 42.171875 196.164062 42.066406 195.957031 41.902344 195.808594 C 41.859375 195.769531 41.816406 195.734375 41.765625 195.703125 C 41.742188 195.6875 41.71875 195.675781 41.691406 195.660156 C 41.640625 195.632812 41.585938 195.613281 41.53125 195.597656 C 41.503906 195.585938 41.476562 195.578125 41.445312 195.574219 C 41.386719 195.558594 41.324219 195.550781 41.261719 195.546875 C 41.226562 195.546875 41.1875 195.546875 41.152344 195.546875 C 40.933594 195.546875 40.726562 195.570312 40.519531 195.613281 C 40.421875 195.632812 40.320312 195.660156 40.226562 195.691406 C 40.222656 195.691406 40.222656 195.691406 40.222656 195.691406 C 40.171875 195.707031 40.125 195.722656 40.074219 195.738281 C 39.96875 195.777344 39.863281 195.820312 39.753906 195.867188 C 39.71875 195.882812 39.683594 195.898438 39.648438 195.914062 C 39.597656 195.9375 39.554688 195.957031 39.507812 195.980469 C 39.414062 196.023438 39.320312 196.074219 39.230469 196.121094 C 39.140625 196.171875 39.046875 196.222656 38.957031 196.273438 C 38.910156 196.296875 38.863281 196.324219 38.820312 196.351562 C 38.671875 196.433594 38.53125 196.527344 38.421875 196.59375 C 38.28125 196.445312 38.183594 196.25 38.039062 196.203125 C 37.375 195.996094 36.707031 195.777344 36.027344 195.664062 C 35.925781 195.648438 35.835938 195.632812 35.753906 195.625 C 35.734375 195.621094 35.714844 195.621094 35.695312 195.617188 C 35.671875 195.617188 35.65625 195.613281 35.636719 195.613281 C 35.617188 195.613281 35.601562 195.613281 35.582031 195.613281 C 35.535156 195.609375 35.492188 195.613281 35.445312 195.613281 C 35.425781 195.613281 35.40625 195.617188 35.390625 195.617188 L 35.382812 195.617188 C 35.375 195.621094 35.359375 195.621094 35.351562 195.621094 C 35.351562 195.621094 35.34375 195.625 35.34375 195.625 C 35.320312 195.628906 35.296875 195.632812 35.273438 195.636719 C 35.257812 195.640625 35.242188 195.644531 35.222656 195.652344 C 35.222656 195.652344 35.21875 195.652344 35.21875 195.65625 C 35.214844 195.65625 35.210938 195.660156 35.207031 195.660156 L 35.203125 195.660156 C 35.183594 195.667969 35.164062 195.679688 35.144531 195.6875 C 35.140625 195.6875 35.140625 195.6875 35.136719 195.691406 C 35.117188 195.703125 35.097656 195.714844 35.082031 195.726562 C 35.0625 195.738281 35.042969 195.753906 35.027344 195.769531 C 35.007812 195.785156 34.992188 195.804688 34.976562 195.824219 C 34.960938 195.84375 34.945312 195.859375 34.929688 195.882812 C 34.914062 195.902344 34.902344 195.925781 34.890625 195.949219 C 34.875 195.976562 34.863281 196.003906 34.847656 196.03125 C 34.820312 196.085938 34.796875 196.144531 34.773438 196.210938 C 34.761719 196.246094 34.75 196.28125 34.738281 196.316406 C 34.734375 196.335938 34.730469 196.355469 34.722656 196.375 C 34.71875 196.390625 34.710938 196.410156 34.707031 196.433594 C 34.695312 196.472656 34.683594 196.511719 34.671875 196.558594 C 34.492188 196.128906 34.394531 195.808594 34.394531 195.53125 L 34.394531 195.519531 C 34.394531 195.511719 34.394531 195.503906 34.398438 195.496094 L 34.398438 195.480469 C 34.398438 195.46875 34.398438 195.457031 34.398438 195.445312 L 34.398438 195.441406 L 34.40625 195.375 C 34.410156 195.347656 34.414062 195.324219 34.421875 195.296875 C 34.425781 195.269531 34.433594 195.246094 34.445312 195.21875 C 34.449219 195.199219 34.460938 195.175781 34.46875 195.152344 C 34.472656 195.144531 34.476562 195.136719 34.476562 195.132812 C 34.480469 195.128906 34.480469 195.128906 34.480469 195.128906 C 34.480469 195.125 34.480469 195.121094 34.484375 195.121094 C 34.492188 195.105469 34.5 195.089844 34.507812 195.070312 C 34.519531 195.042969 34.53125 195.019531 34.546875 194.992188 C 34.5625 194.96875 34.578125 194.941406 34.597656 194.917969 C 34.613281 194.894531 34.632812 194.867188 34.652344 194.84375 C 34.667969 194.824219 34.679688 194.804688 34.699219 194.785156 C 34.710938 194.765625 34.726562 194.75 34.742188 194.734375 C 34.742188 194.734375 34.746094 194.730469 34.746094 194.730469 C 34.761719 194.714844 34.769531 194.703125 34.785156 194.6875 C 34.808594 194.664062 34.832031 194.636719 34.859375 194.609375 C 34.910156 194.558594 34.96875 194.5 35.027344 194.445312 C 35.09375 194.386719 35.160156 194.328125 35.230469 194.265625 C 35.285156 194.222656 35.339844 194.179688 35.390625 194.136719 C 35.421875 194.113281 35.449219 194.089844 35.480469 194.070312 C 35.496094 194.058594 35.511719 194.050781 35.527344 194.039062 C 35.542969 194.027344 35.558594 194.015625 35.574219 194.007812 C 35.582031 194.003906 35.585938 194 35.589844 193.996094 C 35.640625 193.964844 35.6875 193.933594 35.734375 193.90625 C 35.777344 193.882812 35.816406 193.859375 35.859375 193.835938 C 35.902344 193.816406 35.941406 193.792969 35.984375 193.773438 C 36.039062 193.75 36.09375 193.726562 36.148438 193.707031 C 36.175781 193.695312 36.203125 193.683594 36.230469 193.675781 C 36.238281 193.675781 36.242188 193.671875 36.246094 193.667969 C 36.25 193.667969 36.253906 193.667969 36.253906 193.667969 C 36.382812 193.625 36.515625 193.589844 36.648438 193.574219 C 36.660156 193.570312 36.675781 193.570312 36.683594 193.566406 C 36.695312 193.566406 36.707031 193.5625 36.71875 193.5625 C 36.71875 193.5625 36.722656 193.5625 36.722656 193.5625 C 36.753906 193.558594 36.785156 193.554688 36.8125 193.554688 C 36.851562 193.550781 36.890625 193.546875 36.929688 193.546875 C 36.9375 193.542969 36.9375 193.542969 36.945312 193.542969 C 36.988281 193.542969 37.027344 193.542969 37.074219 193.542969 C 37.203125 193.542969 37.339844 193.550781 37.480469 193.570312 C 38.828125 193.738281 40.191406 193.785156 41.546875 193.90625 C 41.585938 193.910156 41.628906 193.914062 41.671875 193.921875 C 41.707031 193.925781 41.742188 193.9375 41.777344 193.945312 C 41.796875 193.949219 41.816406 193.953125 41.835938 193.957031 C 41.90625 193.972656 41.972656 193.992188 42.039062 194.011719 C 42.105469 194.035156 42.171875 194.054688 42.234375 194.078125 C 42.269531 194.085938 42.300781 194.101562 42.332031 194.109375 C 42.386719 194.132812 42.441406 194.152344 42.492188 194.171875 C 42.546875 194.195312 42.597656 194.214844 42.648438 194.242188 C 42.699219 194.265625 42.746094 194.289062 42.792969 194.320312 C 42.839844 194.347656 42.882812 194.375 42.929688 194.402344 C 42.972656 194.429688 43.015625 194.460938 43.054688 194.492188 C 43.085938 194.515625 43.117188 194.542969 43.144531 194.566406 C 43.144531 194.570312 43.148438 194.570312 43.148438 194.574219 C 43.164062 194.582031 43.171875 194.59375 43.183594 194.605469 C 43.1875 194.605469 43.1875 194.609375 43.191406 194.609375 C 43.214844 194.628906 43.234375 194.648438 43.257812 194.671875 C 43.257812 194.671875 43.261719 194.675781 43.261719 194.679688 C 43.261719 194.679688 43.265625 194.679688 43.265625 194.683594 C 43.265625 194.683594 43.265625 194.683594 43.269531 194.683594 C 43.28125 194.695312 43.292969 194.710938 43.304688 194.722656 C 43.324219 194.746094 43.347656 194.769531 43.367188 194.796875 C 43.375 194.804688 43.378906 194.8125 43.382812 194.816406 L 43.386719 194.820312 C 43.386719 194.820312 43.390625 194.824219 43.390625 194.828125 C 43.398438 194.835938 43.40625 194.847656 43.414062 194.855469 C 43.421875 194.867188 43.425781 194.875 43.433594 194.882812 C 43.433594 194.882812 43.433594 194.882812 43.433594 194.886719 C 43.4375 194.890625 43.441406 194.898438 43.445312 194.902344 C 43.445312 194.90625 43.449219 194.90625 43.449219 194.910156 C 43.453125 194.910156 43.453125 194.914062 43.453125 194.914062 C 43.460938 194.921875 43.46875 194.933594 43.472656 194.945312 C 43.488281 194.96875 43.507812 194.996094 43.519531 195.023438 C 43.542969 195.054688 43.558594 195.089844 43.578125 195.125 C 43.585938 195.144531 43.597656 195.160156 43.605469 195.179688 C 43.609375 195.195312 43.621094 195.210938 43.625 195.226562 C 43.644531 195.265625 43.660156 195.308594 43.675781 195.351562 C 43.691406 195.394531 43.707031 195.441406 43.71875 195.492188 C 43.726562 195.515625 43.734375 195.542969 43.738281 195.574219 C 43.742188 195.574219 43.742188 195.574219 43.742188 195.578125 C 43.742188 195.582031 43.742188 195.585938 43.742188 195.589844 C 43.742188 195.597656 43.746094 195.601562 43.746094 195.609375 C 43.753906 195.632812 43.757812 195.65625 43.761719 195.683594 C 43.769531 195.714844 43.773438 195.746094 43.777344 195.777344 C 43.785156 195.796875 43.785156 195.816406 43.789062 195.835938 C 43.789062 195.835938 43.789062 195.839844 43.789062 195.839844 C 43.792969 195.890625 43.800781 195.9375 43.804688 195.988281 C 43.863281 196.820312 43.324219 197.714844 42.507812 198.082031 C 42.015625 198.304688 41.492188 198.433594 40.941406 198.617188 C 40.953125 198.664062 40.96875 198.707031 40.984375 198.75 C 41.007812 198.804688 41.03125 198.863281 41.054688 198.917969 C 41.066406 198.945312 41.078125 198.972656 41.09375 199 C 41.121094 199.0625 41.152344 199.125 41.1875 199.1875 C 41.21875 199.25 41.257812 199.3125 41.296875 199.371094 C 41.3125 199.402344 41.332031 199.4375 41.351562 199.464844 C 41.375 199.5 41.398438 199.535156 41.421875 199.570312 C 41.441406 199.597656 41.457031 199.625 41.476562 199.648438 C 41.542969 199.742188 41.613281 199.832031 41.6875 199.921875 C 41.808594 200.066406 41.941406 200.214844 42.085938 200.359375 C 42.171875 200.441406 42.257812 200.523438 42.347656 200.601562 C 42.382812 200.632812 42.417969 200.664062 42.453125 200.695312 C 42.46875 200.707031 42.480469 200.722656 42.496094 200.730469 C 42.546875 200.773438 42.597656 200.816406 42.652344 200.859375 C 42.683594 200.886719 42.71875 200.910156 42.753906 200.9375 C 42.816406 200.992188 42.882812 201.039062 42.949219 201.085938 C 42.988281 201.113281 43.03125 201.144531 43.074219 201.171875 C 43.132812 201.214844 43.195312 201.257812 43.257812 201.300781 C 43.308594 201.332031 43.359375 201.367188 43.414062 201.398438 C 43.421875 201.40625 43.429688 201.410156 43.4375 201.414062 C 43.507812 201.460938 43.574219 201.5 43.644531 201.542969 C 43.726562 201.589844 43.808594 201.636719 43.886719 201.683594 C 43.964844 201.726562 44.042969 201.765625 44.121094 201.808594 C 44.125 201.8125 44.132812 201.816406 44.140625 201.820312 C 44.222656 201.863281 44.308594 201.90625 44.398438 201.949219 C 44.457031 201.976562 44.515625 202.007812 44.578125 202.035156 C 44.585938 202.039062 44.589844 202.042969 44.597656 202.042969 C 44.597656 202.046875 44.601562 202.046875 44.601562 202.046875 C 44.621094 202.054688 44.644531 202.066406 44.667969 202.074219 C 44.691406 202.085938 44.71875 202.097656 44.746094 202.113281 C 44.804688 202.140625 44.867188 202.167969 44.929688 202.191406 C 44.996094 202.222656 45.0625 202.25 45.132812 202.277344 C 45.175781 202.296875 45.222656 202.316406 45.269531 202.332031 C 45.34375 202.359375 45.414062 202.390625 45.492188 202.414062 C 45.554688 202.441406 45.621094 202.464844 45.683594 202.484375 C 45.738281 202.503906 45.792969 202.523438 45.847656 202.539062 C 45.96875 202.582031 46.089844 202.621094 46.210938 202.65625 C 46.324219 202.691406 46.4375 202.722656 46.554688 202.753906 C 46.570312 202.757812 46.582031 202.761719 46.597656 202.765625 C 46.679688 202.789062 46.757812 202.808594 46.839844 202.828125 C 46.878906 202.839844 46.917969 202.847656 46.957031 202.855469 C 47.058594 202.882812 47.15625 202.90625 47.261719 202.925781 C 47.339844 202.941406 47.421875 202.957031 47.507812 202.972656 C 47.5625 202.984375 47.613281 202.996094 47.664062 203.003906 C 47.738281 203.015625 47.804688 203.027344 47.878906 203.039062 C 47.882812 203.089844 47.886719 203.136719 47.886719 203.1875 C 47.8125 203.199219 47.722656 203.203125 47.636719 203.210938 Z M 67.925781 197.617188 C 67.300781 199.902344 65.882812 201.640625 63.839844 202.765625 C 59.691406 205.054688 55.386719 205.1875 51.007812 203.417969 C 50.996094 203.414062 50.988281 203.410156 50.976562 203.40625 C 50.957031 203.394531 50.941406 203.382812 50.921875 203.375 C 50.902344 203.359375 50.882812 203.34375 50.867188 203.328125 C 50.839844 203.300781 50.8125 203.265625 50.785156 203.222656 C 50.9375 203.222656 51.09375 203.222656 51.246094 203.222656 C 54.78125 203.175781 58.242188 202.710938 61.507812 201.265625 C 61.59375 201.226562 61.683594 201.1875 61.769531 201.148438 C 61.816406 201.125 61.863281 201.101562 61.910156 201.078125 C 61.988281 201.042969 62.066406 201 62.140625 200.964844 C 62.246094 200.910156 62.347656 200.855469 62.449219 200.796875 C 62.84375 200.574219 63.21875 200.328125 63.566406 200.070312 C 63.652344 200.003906 63.738281 199.9375 63.824219 199.871094 C 63.90625 199.804688 63.988281 199.734375 64.070312 199.664062 C 64.230469 199.523438 64.386719 199.378906 64.535156 199.230469 C 64.589844 199.175781 64.644531 199.125 64.695312 199.066406 C 64.703125 199.0625 64.707031 199.054688 64.714844 199.046875 C 64.75 199.011719 64.785156 198.96875 64.820312 198.933594 C 64.824219 198.925781 64.828125 198.925781 64.828125 198.921875 C 64.839844 198.910156 64.851562 198.898438 64.863281 198.886719 C 64.875 198.871094 64.890625 198.859375 64.902344 198.84375 C 64.917969 198.824219 64.933594 198.808594 64.953125 198.789062 C 64.96875 198.769531 64.984375 198.75 65 198.730469 C 65.03125 198.695312 65.0625 198.65625 65.09375 198.621094 C 65.09375 198.621094 65.097656 198.621094 65.097656 198.617188 C 65.097656 198.617188 65.101562 198.613281 65.101562 198.613281 C 65.144531 198.5625 65.183594 198.507812 65.226562 198.460938 C 65.289062 198.382812 65.347656 198.304688 65.410156 198.222656 C 65.449219 198.175781 65.484375 198.128906 65.519531 198.078125 C 65.542969 198.042969 65.566406 198.007812 65.589844 197.976562 C 65.644531 197.902344 65.695312 197.828125 65.746094 197.75 C 65.789062 197.683594 65.832031 197.613281 65.878906 197.542969 C 65.898438 197.511719 65.917969 197.480469 65.933594 197.449219 C 65.976562 197.378906 66.019531 197.3125 66.058594 197.238281 C 66.113281 197.148438 66.164062 197.054688 66.214844 196.960938 C 66.261719 196.867188 66.3125 196.773438 66.359375 196.675781 C 66.40625 196.582031 66.449219 196.488281 66.496094 196.390625 C 66.53125 196.3125 66.566406 196.230469 66.601562 196.152344 C 66.601562 196.148438 66.605469 196.144531 66.605469 196.140625 C 66.605469 196.136719 66.605469 196.132812 66.609375 196.128906 C 66.609375 196.128906 66.609375 196.128906 66.609375 196.125 C 66.625 196.09375 66.636719 196.058594 66.652344 196.023438 C 66.65625 196.011719 66.660156 196 66.664062 195.988281 C 66.695312 195.925781 66.71875 195.863281 66.742188 195.796875 C 66.777344 195.71875 66.804688 195.640625 66.832031 195.558594 C 66.847656 195.519531 66.863281 195.480469 66.878906 195.441406 C 66.902344 195.363281 66.929688 195.289062 66.957031 195.214844 C 66.960938 195.203125 66.964844 195.195312 66.96875 195.183594 C 66.996094 195.09375 67.027344 195 67.054688 194.910156 C 67.074219 194.851562 67.085938 194.792969 67.105469 194.730469 C 67.109375 194.710938 67.117188 194.691406 67.121094 194.671875 C 67.125 194.664062 67.128906 194.65625 67.128906 194.648438 C 67.132812 194.632812 67.136719 194.621094 67.140625 194.609375 C 67.144531 194.578125 67.15625 194.550781 67.167969 194.523438 C 67.183594 194.453125 67.203125 194.382812 67.222656 194.3125 C 67.226562 194.289062 67.234375 194.265625 67.238281 194.242188 C 67.246094 194.214844 67.253906 194.195312 67.257812 194.171875 C 67.257812 194.171875 67.257812 194.167969 67.261719 194.164062 C 67.28125 194.074219 67.300781 193.980469 67.324219 193.886719 C 67.375 193.667969 67.417969 193.441406 67.460938 193.210938 C 67.542969 192.746094 67.589844 192.273438 67.652344 191.800781 C 68.292969 193.710938 68.457031 195.664062 67.925781 197.617188 Z M 68.917969 176.605469 C 68.667969 176.769531 68.414062 176.917969 68.152344 177.046875 C 68.019531 177.113281 67.886719 177.171875 67.753906 177.230469 C 67.671875 177.265625 67.59375 177.292969 67.511719 177.328125 C 67.5 177.332031 67.488281 177.335938 67.476562 177.339844 C 67.40625 177.367188 67.332031 177.394531 67.257812 177.417969 C 67.25 177.421875 67.238281 177.425781 67.230469 177.429688 C 67.175781 177.445312 67.125 177.464844 67.070312 177.480469 C 67.066406 177.484375 67.054688 177.484375 67.046875 177.488281 C 67.039062 177.492188 67.03125 177.492188 67.027344 177.496094 C 67.023438 177.496094 67.015625 177.5 67.007812 177.5 L 66.929688 177.523438 C 66.792969 177.566406 66.652344 177.605469 66.507812 177.640625 L 66.410156 177.667969 C 66.40625 177.667969 66.398438 177.667969 66.394531 177.671875 C 66.273438 177.699219 66.152344 177.730469 66.03125 177.753906 C 65.96875 177.769531 65.90625 177.78125 65.839844 177.792969 C 65.777344 177.804688 65.714844 177.816406 65.648438 177.828125 C 65.644531 177.832031 65.636719 177.832031 65.632812 177.832031 C 65.628906 177.832031 65.625 177.832031 65.621094 177.832031 L 65.5625 177.832031 C 65.535156 177.832031 65.507812 177.828125 65.484375 177.820312 C 65.476562 177.820312 65.464844 177.816406 65.457031 177.816406 C 65.457031 177.816406 65.457031 177.816406 65.453125 177.816406 C 65.449219 177.8125 65.441406 177.8125 65.433594 177.808594 L 65.429688 177.808594 C 65.421875 177.804688 65.410156 177.804688 65.402344 177.800781 C 65.347656 177.78125 65.300781 177.757812 65.265625 177.726562 C 65.257812 177.722656 65.253906 177.714844 65.25 177.710938 C 65.238281 177.703125 65.230469 177.6875 65.222656 177.679688 C 65.148438 177.5625 65.078125 177.445312 65.003906 177.324219 C 64.957031 177.246094 64.910156 177.167969 64.867188 177.089844 C 64.773438 176.9375 64.679688 176.78125 64.589844 176.625 C 64.359375 176.226562 64.125 175.816406 63.875 175.386719 C 64.09375 175.375 64.304688 175.359375 64.515625 175.34375 C 64.558594 175.34375 64.605469 175.339844 64.648438 175.335938 C 64.699219 175.332031 64.75 175.328125 64.800781 175.324219 C 64.851562 175.320312 64.902344 175.320312 64.953125 175.3125 C 65.050781 175.304688 65.152344 175.296875 65.25 175.285156 C 65.316406 175.28125 65.382812 175.273438 65.449219 175.265625 C 65.511719 175.253906 65.578125 175.246094 65.640625 175.238281 C 65.703125 175.230469 65.769531 175.222656 65.835938 175.214844 C 65.898438 175.203125 65.960938 175.191406 66.023438 175.183594 C 66.085938 175.167969 66.148438 175.15625 66.210938 175.144531 C 66.246094 175.140625 66.28125 175.132812 66.316406 175.125 C 66.320312 175.121094 66.324219 175.121094 66.328125 175.121094 C 66.40625 175.105469 66.480469 175.089844 66.554688 175.066406 C 66.632812 175.050781 66.707031 175.027344 66.78125 175.007812 C 67.082031 174.921875 67.371094 174.8125 67.660156 174.671875 C 68.734375 174.144531 69.6875 173.46875 69.929688 172.222656 C 70.0625 171.558594 69.957031 170.84375 69.957031 170.152344 C 69.957031 170.140625 69.953125 170.125 69.953125 170.113281 C 69.953125 170.089844 69.949219 170.066406 69.949219 170.046875 C 69.945312 170.03125 69.945312 170.011719 69.941406 169.992188 C 69.9375 169.96875 69.933594 169.945312 69.929688 169.917969 C 69.925781 169.902344 69.925781 169.890625 69.921875 169.875 C 69.921875 169.855469 69.917969 169.835938 69.914062 169.8125 C 69.929688 169.835938 69.945312 169.859375 69.957031 169.878906 C 70.003906 169.953125 70.046875 170.03125 70.089844 170.101562 C 70.136719 170.175781 70.175781 170.246094 70.214844 170.320312 C 70.21875 170.324219 70.222656 170.328125 70.226562 170.335938 C 70.242188 170.363281 70.257812 170.398438 70.277344 170.429688 L 70.324219 170.519531 C 70.328125 170.523438 70.328125 170.527344 70.332031 170.53125 C 70.363281 170.59375 70.394531 170.65625 70.425781 170.714844 C 70.449219 170.757812 70.46875 170.800781 70.488281 170.84375 C 70.507812 170.882812 70.523438 170.921875 70.542969 170.960938 C 70.566406 171.019531 70.59375 171.082031 70.621094 171.140625 C 70.648438 171.210938 70.675781 171.28125 70.703125 171.347656 C 70.71875 171.394531 70.734375 171.4375 70.753906 171.484375 C 70.765625 171.515625 70.777344 171.550781 70.785156 171.585938 C 70.808594 171.644531 70.828125 171.703125 70.84375 171.765625 C 70.859375 171.8125 70.875 171.863281 70.886719 171.910156 C 70.894531 171.9375 70.902344 171.96875 70.910156 171.996094 C 70.921875 172.035156 70.929688 172.074219 70.9375 172.109375 C 70.945312 172.140625 70.949219 172.167969 70.957031 172.195312 C 70.96875 172.257812 70.980469 172.316406 70.992188 172.375 C 71 172.433594 71.011719 172.488281 71.019531 172.542969 C 71.023438 172.59375 71.03125 172.640625 71.035156 172.6875 C 71.039062 172.730469 71.042969 172.773438 71.042969 172.816406 C 71.046875 172.839844 71.046875 172.867188 71.050781 172.894531 L 71.050781 172.910156 C 71.050781 172.921875 71.050781 172.933594 71.050781 172.949219 C 71.054688 173.035156 71.054688 173.121094 71.050781 173.203125 L 71.050781 173.257812 C 71.050781 173.273438 71.050781 173.292969 71.046875 173.308594 C 71.042969 173.375 71.039062 173.4375 71.03125 173.503906 C 71.023438 173.566406 71.015625 173.628906 71.007812 173.691406 L 71.007812 173.695312 C 70.996094 173.757812 70.984375 173.816406 70.972656 173.875 L 70.972656 173.882812 C 70.960938 173.941406 70.945312 173.996094 70.929688 174.050781 C 70.898438 174.171875 70.859375 174.292969 70.816406 174.40625 C 70.816406 174.410156 70.8125 174.410156 70.8125 174.410156 C 70.800781 174.445312 70.785156 174.480469 70.769531 174.515625 C 70.75 174.570312 70.722656 174.625 70.695312 174.679688 C 70.6875 174.695312 70.679688 174.714844 70.671875 174.734375 C 70.660156 174.757812 70.648438 174.78125 70.632812 174.804688 C 70.625 174.820312 70.617188 174.835938 70.605469 174.851562 C 70.578125 174.902344 70.550781 174.953125 70.519531 175.003906 C 70.507812 175.023438 70.492188 175.042969 70.480469 175.066406 C 70.460938 175.097656 70.445312 175.125 70.425781 175.152344 C 70.382812 175.214844 70.339844 175.277344 70.292969 175.335938 C 70.289062 175.339844 70.289062 175.339844 70.289062 175.339844 C 70.269531 175.363281 70.25 175.390625 70.230469 175.417969 C 70.191406 175.46875 70.148438 175.519531 70.105469 175.570312 C 70.066406 175.613281 70.023438 175.664062 69.980469 175.707031 C 69.929688 175.761719 69.878906 175.8125 69.824219 175.867188 C 69.792969 175.898438 69.761719 175.929688 69.726562 175.964844 C 69.65625 176.027344 69.589844 176.089844 69.515625 176.152344 C 69.4375 176.210938 69.363281 176.273438 69.285156 176.332031 C 69.164062 176.429688 69.042969 176.515625 68.917969 176.605469 Z M 68.917969 176.605469 " fill-opacity="1" fill-rule="evenodd"/></g><path fill="#169c00" d="M 33.242188 201.804688 C 30.851562 199.578125 28.167969 197.847656 24.863281 197.339844 C 23.65625 197.15625 22.445312 197.203125 21.332031 197.8125 C 20.910156 198.046875 20.5625 198.375 20.691406 198.914062 C 20.820312 199.4375 21.292969 199.472656 21.71875 199.488281 C 22.175781 199.511719 22.636719 199.453125 23.09375 199.464844 C 26.34375 199.558594 29.398438 200.433594 32.324219 201.800781 C 32.734375 201.996094 33.132812 202.210938 33.648438 202.472656 C 33.460938 202.472656 33.414062 202.476562 33.363281 202.46875 C 30.945312 202.070312 28.550781 202.148438 26.191406 202.828125 C 24.660156 203.269531 23.269531 203.964844 22.335938 205.335938 C 22.1875 205.554688 22.042969 205.824219 22.039062 206.074219 C 22.035156 206.351562 22.117188 206.734375 22.304688 206.871094 C 22.496094 207.011719 22.882812 206.96875 23.144531 206.886719 C 23.429688 206.804688 23.683594 206.597656 23.925781 206.414062 C 25.667969 205.074219 27.613281 204.140625 29.765625 203.738281 C 31.679688 203.375 33.625 203.160156 35.445312 202.894531 C 35.472656 202.902344 35.363281 202.839844 35.253906 202.839844 C 34.40625 202.839844 33.835938 202.359375 33.242188 201.804688 Z M 33.242188 201.804688 " fill-opacity="1" fill-rule="evenodd"/><path fill="#169c00" d="M 30.71875 220.328125 C 31.90625 220.613281 33.085938 220.9375 34.269531 221.261719 C 34.847656 221.421875 35.425781 221.582031 36.003906 221.742188 C 37.164062 222.058594 38.324219 222.367188 39.496094 222.640625 C 41.667969 223.144531 43.894531 223.414062 46.097656 223.785156 C 46.109375 223.742188 46.121094 223.691406 46.128906 223.648438 C 46.027344 223.59375 45.925781 223.539062 45.820312 223.488281 C 44.210938 222.757812 42.59375 222.042969 40.992188 221.292969 C 38.992188 220.355469 36.980469 219.472656 34.871094 218.871094 C 34.269531 218.699219 33.664062 218.554688 33.046875 218.433594 C 32.714844 218.371094 32.378906 218.3125 32.039062 218.269531 C 29.539062 217.925781 27.117188 218.132812 24.847656 219.21875 C 26.785156 219.578125 28.773438 219.859375 30.71875 220.328125 Z M 30.71875 220.328125 " fill-opacity="1" fill-rule="evenodd"/><path fill="#169c00" d="M 27.921875 206.5 C 28.910156 205.9375 29.898438 205.378906 30.890625 204.816406 C 27.863281 205.59375 25.003906 206.785156 22.515625 208.742188 C 21.121094 209.835938 19.914062 211.101562 19.371094 212.859375 C 19.277344 213.167969 19.203125 213.476562 19.164062 213.792969 C 19.09375 214.332031 19.121094 214.878906 19.296875 215.417969 C 19.375 215.664062 19.625 216.007812 19.820312 216.023438 C 20.058594 216.046875 20.355469 215.808594 20.566406 215.617188 C 20.625 215.5625 20.671875 215.5 20.714844 215.429688 C 20.792969 215.296875 20.855469 215.140625 20.921875 215 C 21.105469 214.617188 21.269531 214.226562 21.441406 213.835938 C 22.835938 210.714844 24.914062 208.199219 27.921875 206.5 Z M 27.921875 206.5 " fill-opacity="1" fill-rule="evenodd"/><path fill="#169c00" d="M 36.359375 203.332031 C 34.3125 203.738281 32.421875 204.496094 30.753906 205.777344 C 29.03125 207.097656 27.734375 208.710938 27.214844 210.863281 C 26.980469 211.824219 26.941406 212.796875 27.351562 213.714844 C 27.472656 213.984375 27.789062 214.300781 28.042969 214.328125 C 28.238281 214.347656 28.554688 213.992188 28.679688 213.730469 C 28.851562 213.375 28.925781 212.957031 28.988281 212.554688 C 29.339844 210.308594 30.257812 208.339844 31.855469 206.699219 C 33.296875 205.222656 35 204.140625 36.960938 203.328125 C 36.851562 203.308594 36.808594 203.292969 36.765625 203.296875 C 36.632812 203.304688 36.492188 203.308594 36.359375 203.332031 Z M 36.359375 203.332031 " fill-opacity="1" fill-rule="evenodd"/><path fill="#169c00" d="M 20.082031 202.796875 C 20.007812 203.007812 20.066406 203.363281 20.210938 203.523438 C 20.332031 203.664062 20.683594 203.699219 20.886719 203.632812 C 21.203125 203.535156 21.492188 203.332031 21.769531 203.136719 C 23.304688 202.058594 24.96875 201.339844 26.875 201.117188 C 25.960938 201.074219 25.046875 200.957031 24.136719 200.996094 C 22.886719 201.050781 21.660156 201.292969 20.640625 202.097656 C 20.410156 202.28125 20.175781 202.53125 20.082031 202.796875 Z M 20.082031 202.796875 " fill-opacity="1" fill-rule="evenodd"/><path fill="#169c00" d="M 32.125 210.199219 C 32.25 210.046875 32.300781 209.835938 32.402344 209.660156 C 32.777344 208.996094 33.113281 208.304688 33.550781 207.683594 C 34.4375 206.414062 35.617188 205.441406 36.9375 204.640625 C 36.929688 204.589844 36.917969 204.542969 36.910156 204.492188 C 36.480469 204.675781 36.042969 204.839844 35.625 205.042969 C 33.96875 205.855469 32.582031 206.976562 31.722656 208.640625 C 31.511719 209.058594 31.488281 209.578125 31.425781 210.058594 C 31.414062 210.167969 31.59375 210.382812 31.714844 210.40625 C 31.832031 210.429688 32.03125 210.3125 32.125 210.199219 Z M 32.125 210.199219 " fill-opacity="1" fill-rule="evenodd"/><path fill="#169c00" d="M 25.699219 211.859375 C 25.828125 211.695312 25.878906 211.460938 25.953125 211.253906 C 26.472656 209.773438 27.230469 208.4375 28.285156 207.265625 C 27.054688 208.0625 25.863281 208.917969 25.191406 210.277344 C 24.980469 210.703125 24.90625 211.210938 24.847656 211.691406 C 24.828125 211.84375 25.042969 212.128906 25.199219 212.167969 C 25.335938 212.203125 25.578125 212.011719 25.699219 211.859375 Z M 25.699219 211.859375 " fill-opacity="1" fill-rule="evenodd"/><path fill="#169c00" d="M 34.5 212.28125 C 34.6875 212.289062 34.949219 212.058594 35.0625 211.863281 C 35.214844 211.609375 35.289062 211.296875 35.339844 211 C 35.671875 209.023438 36.386719 207.230469 37.683594 205.710938 C 37.773438 205.605469 37.863281 205.5 37.960938 205.398438 C 38.339844 204.992188 38.726562 204.59375 39.113281 204.191406 C 39.082031 204.144531 39.050781 204.097656 39.019531 204.050781 C 38.308594 204.488281 37.558594 204.878906 36.886719 205.375 C 35.445312 206.441406 34.328125 207.769531 33.886719 209.558594 C 33.832031 209.792969 33.789062 210.027344 33.765625 210.257812 C 33.714844 210.785156 33.765625 211.3125 33.984375 211.816406 C 34.066406 212.019531 34.316406 212.273438 34.5 212.28125 Z M 34.5 212.28125 " fill-opacity="1" fill-rule="evenodd"/><g fill="#000000" fill-opacity="1"><g transform="translate(104.899613, 213.281145)"><g><path d="M 26.171875 -39.828125 C 22.378906 -39.828125 19.441406 -38.398438 17.359375 -35.546875 C 15.273438 -32.703125 14.234375 -28.734375 14.234375 -23.640625 C 14.234375 -13.035156 18.210938 -7.734375 26.171875 -7.734375 C 29.503906 -7.734375 33.546875 -8.566406 38.296875 -10.234375 L 38.296875 -1.78125 C 34.390625 -0.15625 30.035156 0.65625 25.234375 0.65625 C 18.316406 0.65625 13.023438 -1.441406 9.359375 -5.640625 C 5.703125 -9.835938 3.875 -15.859375 3.875 -23.703125 C 3.875 -28.640625 4.769531 -32.96875 6.5625 -36.6875 C 8.363281 -40.40625 10.945312 -43.253906 14.3125 -45.234375 C 17.6875 -47.210938 21.640625 -48.203125 26.171875 -48.203125 C 30.785156 -48.203125 35.421875 -47.085938 40.078125 -44.859375 L 36.828125 -36.671875 C 35.054688 -37.515625 33.269531 -38.25 31.46875 -38.875 C 29.664062 -39.507812 27.898438 -39.828125 26.171875 -39.828125 Z M 26.171875 -39.828125 "/></g></g></g><g fill="#000000" fill-opacity="1"><g transform="translate(147.317877, 213.281145)"><g><path d="M 13.09375 -18.234375 C 13.09375 -14.640625 13.679688 -11.921875 14.859375 -10.078125 C 16.046875 -8.234375 17.972656 -7.3125 20.640625 -7.3125 C 23.285156 -7.3125 25.1875 -8.226562 26.34375 -10.0625 C 27.507812 -11.894531 28.09375 -14.617188 28.09375 -18.234375 C 28.09375 -21.835938 27.503906 -24.535156 26.328125 -26.328125 C 25.160156 -28.128906 23.242188 -29.03125 20.578125 -29.03125 C 17.929688 -29.03125 16.019531 -28.132812 14.84375 -26.34375 C 13.675781 -24.5625 13.09375 -21.859375 13.09375 -18.234375 Z M 38.234375 -18.234375 C 38.234375 -12.316406 36.671875 -7.6875 33.546875 -4.34375 C 30.429688 -1.007812 26.085938 0.65625 20.515625 0.65625 C 17.023438 0.65625 13.945312 -0.109375 11.28125 -1.640625 C 8.613281 -3.171875 6.5625 -5.363281 5.125 -8.21875 C 3.695312 -11.082031 2.984375 -14.421875 2.984375 -18.234375 C 2.984375 -24.171875 4.53125 -28.785156 7.625 -32.078125 C 10.726562 -35.378906 15.085938 -37.03125 20.703125 -37.03125 C 24.191406 -37.03125 27.269531 -36.269531 29.9375 -34.75 C 32.601562 -33.226562 34.648438 -31.046875 36.078125 -28.203125 C 37.515625 -25.367188 38.234375 -22.046875 38.234375 -18.234375 Z M 38.234375 -18.234375 "/></g></g></g><g fill="#000000" fill-opacity="1"><g transform="translate(188.533477, 213.281145)"><g><path d="M 35.078125 0 L 32.28125 -12.71875 L 28.515625 -28.765625 L 28.28125 -28.765625 L 21.65625 0 L 10.984375 0 L 0.65625 -36.34375 L 10.53125 -36.34375 L 14.71875 -20.25 C 15.394531 -17.363281 16.082031 -13.390625 16.78125 -8.328125 L 16.96875 -8.328125 C 17.050781 -9.972656 17.429688 -12.582031 18.109375 -16.15625 L 18.625 -18.921875 L 23.109375 -36.34375 L 34.03125 -36.34375 L 38.296875 -18.921875 C 38.378906 -18.441406 38.515625 -17.734375 38.703125 -16.796875 C 38.890625 -15.867188 39.066406 -14.878906 39.234375 -13.828125 C 39.410156 -12.773438 39.566406 -11.742188 39.703125 -10.734375 C 39.847656 -9.734375 39.929688 -8.929688 39.953125 -8.328125 L 40.140625 -8.328125 C 40.335938 -9.878906 40.6875 -12.015625 41.1875 -14.734375 C 41.6875 -17.460938 42.046875 -19.300781 42.265625 -20.25 L 46.625 -36.34375 L 56.34375 -36.34375 L 45.875 0 Z M 35.078125 0 "/></g></g></g><g fill="#169c00" fill-opacity="1"><g transform="translate(245.517181, 213.281145)"><g><path d="M 35.078125 0 L 31.625 -11.3125 L 14.296875 -11.3125 L 10.859375 0 L 0 0 L 16.78125 -47.71875 L 29.09375 -47.71875 L 45.9375 0 Z M 29.21875 -19.765625 C 26.039062 -30.015625 24.25 -35.8125 23.84375 -37.15625 C 23.445312 -38.5 23.160156 -39.5625 22.984375 -40.34375 C 22.265625 -37.570312 20.21875 -30.710938 16.84375 -19.765625 Z M 29.21875 -19.765625 "/></g></g></g><g fill="#000000" fill-opacity="1"><g transform="translate(291.454066, 213.281145)"><g><path d="M 15.109375 0 L 5.203125 0 L 5.203125 -50.578125 L 15.109375 -50.578125 Z M 15.109375 0 "/></g></g></g><g fill="#000000" fill-opacity="1"><g transform="translate(311.769326, 213.281145)"><g><path d="M 15.109375 0 L 5.203125 0 L 5.203125 -50.578125 L 15.109375 -50.578125 Z M 15.109375 0 "/></g></g></g><g fill="#000000" fill-opacity="1"><g transform="translate(332.084587, 213.281145)"><g><path d="M 0 -36.34375 L 10.859375 -36.34375 L 17.71875 -15.890625 C 18.300781 -14.117188 18.703125 -12.019531 18.921875 -9.59375 L 19.109375 -9.59375 C 19.347656 -11.820312 19.816406 -13.921875 20.515625 -15.890625 L 27.25 -36.34375 L 37.875 -36.34375 L 22.5 4.65625 C 21.09375 8.445312 19.082031 11.285156 16.46875 13.171875 C 13.851562 15.054688 10.800781 16 7.3125 16 C 5.601562 16 3.925781 15.8125 2.28125 15.4375 L 2.28125 7.578125 C 3.46875 7.859375 4.765625 8 6.171875 8 C 7.929688 8 9.46875 7.460938 10.78125 6.390625 C 12.09375 5.316406 13.113281 3.695312 13.84375 1.53125 L 14.4375 -0.265625 Z M 0 -36.34375 "/></g></g></g></svg>